<svg width="46" height="58" viewBox="0 0 46 58" fill="none" xmlns="http://www.w3.org/2000/svg">
<path d="M40.25 11.6H34.5C34.5 5.191 29.3538 0 23 0C16.6462 0 11.5 5.191 11.5 11.6H5.75C2.5875 11.6 0 14.21 0 17.4V52.2C0 55.39 2.5875 58 5.75 58H40.25C43.4125 58 46 55.39 46 52.2V17.4C46 14.21 43.4125 11.6 40.25 11.6ZM23 5.8C26.1625 5.8 28.75 8.41 28.75 11.6H17.25C17.25 8.41 19.8375 5.8 23 5.8ZM40.25 52.2H5.75V17.4H11.5V23.2C11.5 24.795 12.7937 26.1 14.375 26.1C15.9563 26.1 17.25 24.795 17.25 23.2V17.4H28.75V23.2C28.75 24.795 30.0438 26.1 31.625 26.1C33.2062 26.1 34.5 24.795 34.5 23.2V17.4H40.25V52.2Z" fill="#65CDAA"/>
</svg>
