<svg width="81" height="59" viewBox="0 0 81 59" fill="none" xmlns="http://www.w3.org/2000/svg">
<path d="M51.4091 29.5C59.4455 29.5 65.9545 23.0112 65.9545 15C65.9545 6.98875 59.4455 0.5 51.4091 0.5C43.3727 0.5 36.8636 6.98875 36.8636 15C36.8636 23.0112 43.3727 29.5 51.4091 29.5ZM51.4091 7.75C55.4091 7.75 58.6818 11.0125 58.6818 15C58.6818 18.9875 55.4091 22.25 51.4091 22.25C47.4091 22.25 44.1364 18.9875 44.1364 15C44.1364 11.0125 47.4091 7.75 51.4091 7.75ZM51.4091 36.75C41.7 36.75 22.3182 41.6075 22.3182 51.25V58.5H80.5V51.25C80.5 41.6075 61.1182 36.75 51.4091 36.75ZM29.5909 51.25C30.3909 48.64 41.6273 44 51.4091 44C61.2273 44 72.5 48.6763 73.2273 51.25H29.5909ZM18.6818 40.375V29.5H29.5909V22.25H18.6818V11.375H11.4091V22.25H0.5V29.5H11.4091V40.375H18.6818Z" fill="#65CDAA"/>
</svg>
