<svg width="25" height="31" viewBox="0 0 25 31" fill="none" xmlns="http://www.w3.org/2000/svg">
<path d="M16.6667 23.6111H2.77778V6.94444H12.5V4.16667H2.77778V2.77778H12.5V0.0138889L2.77778 0C1.25 0 0 1.25 0 2.77778V27.7778C0 29.3056 1.25 30.5556 2.77778 30.5556H16.6667C18.1944 30.5556 19.4444 29.3056 19.4444 27.7778V20.8333H16.6667V23.6111ZM16.6667 27.7778H2.77778V26.3889H16.6667V27.7778Z" fill="#65CDAA"/>
<path d="M18.0538 18.059L24.9983 11.1146L23.0399 9.15625L19.4427 12.7396V2.78125H16.6649V12.7396L13.0677 9.15625L11.1094 11.1146L18.0538 18.059Z" fill="#65CDAA"/>
</svg>
