<svg width="25" height="26" viewBox="0 0 25 26" fill="none" xmlns="http://www.w3.org/2000/svg">
<path d="M22.2222 2.83247H19.4444V0.0546875H5.55556V2.83247H2.77778C1.25 2.83247 0 4.08247 0 5.61024V6.99913C0 10.5408 2.66667 13.4297 6.09722 13.8602C6.97222 15.9436 8.84722 17.513 11.1111 17.9714V22.2769H5.55556V25.0547H19.4444V22.2769H13.8889V17.9714C16.1528 17.513 18.0278 15.9436 18.9028 13.8602C22.3333 13.4297 25 10.5408 25 6.99913V5.61024C25 4.08247 23.75 2.83247 22.2222 2.83247ZM2.77778 6.99913V5.61024H5.55556V10.9158C3.94444 10.3325 2.77778 8.80469 2.77778 6.99913ZM12.5 15.3325C10.2083 15.3325 8.33333 13.4575 8.33333 11.1658V2.83247H16.6667V11.1658C16.6667 13.4575 14.7917 15.3325 12.5 15.3325ZM22.2222 6.99913C22.2222 8.80469 21.0556 10.3325 19.4444 10.9158V5.61024H22.2222V6.99913Z" fill="#65CDAA"/>
</svg>
