<svg width="25" height="26" viewBox="0 0 25 26" fill="none" xmlns="http://www.w3.org/2000/svg">
<path d="M12.5 3.17969C14.2188 3.17969 15.625 4.58594 15.625 6.30469C15.625 8.02344 14.2188 9.42969 12.5 9.42969C10.7812 9.42969 9.375 8.02344 9.375 6.30469C9.375 4.58594 10.7812 3.17969 12.5 3.17969ZM12.5 18.8047C16.7188 18.8047 21.5625 20.8203 21.875 21.9297H3.125C3.48438 20.8047 8.29688 18.8047 12.5 18.8047ZM12.5 0.0546875C9.04688 0.0546875 6.25 2.85156 6.25 6.30469C6.25 9.75781 9.04688 12.5547 12.5 12.5547C15.9531 12.5547 18.75 9.75781 18.75 6.30469C18.75 2.85156 15.9531 0.0546875 12.5 0.0546875ZM12.5 15.6797C8.32812 15.6797 0 17.7734 0 21.9297V25.0547H25V21.9297C25 17.7734 16.6719 15.6797 12.5 15.6797Z" fill="#65CDAA"/>
</svg>
