<svg width="185" height="58" viewBox="0 0 185 58" fill="none" xmlns="http://www.w3.org/2000/svg">
<g clip-path="url(#clip0_2149_3932)">
<path d="M52.8372 40.8929C52.5481 40.1977 52.2771 39.467 51.9879 38.8431L50.6508 35.8665L50.5966 35.813C46.6213 27.2575 42.375 18.5593 37.8757 10.0038L37.695 9.64728C37.2433 8.80955 36.7916 7.8827 36.3218 7.02714C35.7436 6.01117 35.1834 4.9239 34.2619 3.8901C33.3636 2.80842 32.2331 1.93692 30.9519 1.33851C29.6708 0.740094 28.2709 0.429688 26.8534 0.429688C25.4359 0.429688 24.036 0.740094 22.7549 1.33851C21.4737 1.93692 20.3432 2.80842 19.4449 3.8901C18.5957 4.9239 17.9633 6.01117 17.385 7.02714C16.9333 7.95399 16.4816 8.86302 16.0118 9.70075L15.8311 10.0572C11.4041 18.6128 7.08547 27.3109 3.1102 35.8665L3.00179 35.9734C2.60426 36.9003 2.13446 37.8628 1.68272 38.8966C1.39361 39.5204 1.1045 40.1977 0.81539 40.9464C0.034851 42.9066 -0.2144 45.0337 0.0922027 47.1179C0.398805 49.2021 1.25068 51.1716 2.56387 52.8322C3.87705 54.4928 5.60623 55.7871 7.58098 56.5878C9.55573 57.3884 11.7079 57.6676 13.8254 57.398C15.8554 57.1344 17.8102 56.4674 19.5714 55.4373C21.9205 54.1362 24.1791 52.2468 26.7088 49.5197C29.2386 52.2468 31.5514 54.1362 33.8463 55.4552C36.0531 56.7329 38.5522 57.4381 41.1102 57.5049C44.0724 57.5171 46.939 56.4716 49.1808 54.5617C51.4226 52.6517 52.8882 50.0061 53.307 47.1135C53.791 45.0348 53.6272 42.8604 52.8372 40.8751V40.8929ZM26.8895 43.8517C23.7816 39.9304 21.7578 36.3299 21.0712 33.2464C20.7867 32.1037 20.7254 30.9181 20.8905 29.7528C21.017 28.8438 21.3603 28.0417 21.8301 27.3644C22.9143 25.8137 24.8116 24.8512 26.8895 24.8512C27.8764 24.8215 28.8553 25.0339 29.7383 25.4694C30.6214 25.905 31.381 26.55 31.949 27.3466C32.4188 28.0595 32.7621 28.8438 32.8705 29.7528C33.0512 30.7866 32.9789 31.9808 32.6898 33.2464C32.0032 36.2764 29.9794 39.9126 26.8895 43.8517ZM49.91 46.4896C49.7047 47.9582 49.1128 49.3482 48.1934 50.5209C47.274 51.6936 46.0592 52.6083 44.6698 53.1737C43.2966 53.744 41.7787 53.9045 40.297 53.744C38.8515 53.5658 37.4059 53.1024 35.9242 52.2468C33.4641 50.7469 31.2519 48.8834 29.3651 46.7214C33.1596 42.0871 35.4544 37.8628 36.3218 34.1019C36.7374 32.3195 36.7916 30.7153 36.6109 29.2359C36.3852 27.8337 35.8552 26.4961 35.0569 25.3146C34.1455 24.0336 32.929 22.993 31.5143 22.2843C30.0996 21.5757 28.5301 21.2208 26.9437 21.2508C23.6009 21.2508 20.6195 22.7836 18.8125 25.2968C17.9991 26.4753 17.4734 27.8235 17.2766 29.2359C17.0417 30.7332 17.0959 32.3908 17.5657 34.1019C18.4331 37.8628 20.7821 42.1406 24.5224 46.757C22.6676 48.9603 20.4503 50.8403 17.9633 52.3181C16.4635 53.1737 15.036 53.6193 13.5905 53.7975C11.3424 54.0816 9.07157 53.4789 7.27152 52.1205C5.47146 50.7621 4.2877 48.7577 3.97754 46.5431C3.79684 45.1172 3.92333 43.6913 4.50155 42.0871C4.68224 41.5167 4.95328 40.9464 5.24239 40.269C5.63992 39.3422 6.10973 38.3797 6.56146 37.4172L6.63374 37.2924C10.5367 28.7903 14.8011 20.11 19.2281 11.6079L19.4088 11.2514C19.8605 10.3959 20.3123 9.48686 20.7821 8.63131C21.2519 7.72228 21.7578 6.8489 22.4083 6.13594C22.9714 5.47292 23.675 4.93971 24.4695 4.57387C25.264 4.20802 26.1302 4.01842 27.007 4.01842C27.8838 4.01842 28.75 4.20802 29.5445 4.57387C30.339 4.93971 31.0426 5.47292 31.6057 6.13594C32.2381 6.8489 32.7621 7.72228 33.2319 8.63131C33.6836 9.48686 34.1354 10.4137 34.6052 11.2514L34.7859 11.6079C39.1948 20.11 43.4592 28.7903 47.4345 37.2924L47.4887 37.3459C47.9585 38.2727 48.356 39.3065 48.8077 40.1977C49.0968 40.8929 49.386 41.4454 49.5666 42.0336C49.91 43.6378 50.0907 45.0637 49.91 46.4896ZM75.0626 43.4596C73.701 43.4792 72.3524 43.1962 71.1168 42.6315C69.8812 42.0669 68.7903 41.235 67.9252 40.1977C65.981 37.9875 64.9492 35.1376 65.0341 32.2126C65.0043 29.2238 66.0694 26.325 68.0336 24.0491C68.9421 22.9986 70.0731 22.1573 71.3468 21.5845C72.6205 21.0118 74.0061 20.7214 75.4059 20.7339C76.723 20.6983 78.0277 20.9937 79.1972 21.5924C80.3668 22.191 81.3628 23.0733 82.0916 24.1561L82.2723 21.3577H87.5485V42.8892H82.2542L82.0735 39.7521C81.3221 40.9083 80.2836 41.8558 79.0565 42.5047C77.8295 43.1536 76.4546 43.4823 75.0626 43.4596ZM76.4358 38.3262C77.4839 38.3262 78.4054 38.041 79.2727 37.5241C80.0678 36.9538 80.7183 36.2052 81.2242 35.2961C81.676 34.3871 81.9109 33.2998 81.9109 32.0878C81.9813 31.0351 81.7736 29.9824 81.308 29.0326C80.8424 28.0828 80.1349 27.2685 79.2547 26.6693C78.4089 26.1495 77.4324 25.8739 76.4358 25.8739C75.4393 25.8739 74.4628 26.1495 73.617 26.6693C72.822 27.2396 72.1715 27.9883 71.6655 28.8973C71.1877 29.8998 70.9526 30.9981 70.9789 32.1056C70.9084 33.1583 71.1162 34.211 71.5818 35.1608C72.0473 36.1106 72.7549 36.9249 73.6351 37.5241C74.4844 38.041 75.4059 38.3262 76.4358 38.3262ZM96.5832 15.547C96.5832 16.1709 96.4748 16.7413 96.1857 17.2047C95.8966 17.6503 95.4991 18.0602 94.9751 18.3454C94.451 18.6306 93.8909 18.7376 93.3127 18.7376C92.7345 18.7376 92.1562 18.6306 91.6322 18.3454C91.1366 18.0733 90.7199 17.6806 90.4216 17.2047C90.1417 16.6969 90.0045 16.1247 90.024 15.547C90.024 14.9054 90.1505 14.335 90.4216 13.8894C90.7107 13.3547 91.1263 13.0339 91.6322 12.7487C92.1562 12.4635 92.7164 12.3387 93.3127 12.3387C93.8878 12.3256 94.4566 12.46 94.9634 12.7287C95.4701 12.9974 95.8975 13.3912 96.2038 13.8716C96.4667 14.3912 96.597 14.9664 96.5832 15.547ZM90.4396 42.8179V21.322H96.1857V42.8535H90.4216L90.4396 42.8179ZM111.545 26.9545V27.0258C111.274 26.901 110.912 26.8475 110.641 26.794C110.28 26.7227 109.991 26.7227 109.647 26.7227C108.039 26.7227 106.829 27.1862 106.034 28.1487C105.166 29.129 104.769 30.5014 104.769 32.266V42.8357H99.0045V21.3042H104.299L104.48 24.566C105.058 23.4253 105.744 22.5697 106.72 21.9281C107.691 21.3046 108.833 20.9933 109.991 21.0369C110.406 21.0369 110.804 21.0725 111.147 21.1438C111.328 21.1973 111.436 21.1973 111.545 21.2508V26.9545ZM113.858 42.8179V12.4813H119.604V24.067C120.417 23.0332 121.338 22.2311 122.495 21.6072C124.326 20.7218 126.405 20.4706 128.399 20.8943C130.392 21.3179 132.182 22.3916 133.481 23.9422C135.429 26.157 136.462 29.014 136.372 31.9452C136.402 34.9339 135.337 37.8328 133.373 40.1086C132.464 41.1591 131.333 42.0004 130.059 42.5732C128.786 43.146 127.4 43.4364 126 43.4239C124.683 43.4595 123.378 43.164 122.209 42.5654C121.039 41.9667 120.043 41.0845 119.315 40.0017L119.134 42.8001L113.858 42.8535V42.8179ZM124.97 38.3262C126 38.3262 126.922 38.041 127.789 37.5241C128.584 36.9538 129.235 36.2052 129.741 35.2961C130.21 34.3871 130.427 33.2998 130.427 32.0878C130.427 30.8936 130.21 29.8063 129.741 28.8973C129.266 28.0208 128.599 27.2596 127.789 26.6693C126.943 26.1495 125.967 25.8739 124.97 25.8739C123.974 25.8739 122.997 26.1495 122.151 26.6693C121.338 27.2396 120.706 27.9883 120.182 28.8973C119.704 29.8998 119.469 30.9981 119.495 32.1056C119.425 33.1583 119.633 34.211 120.098 35.1608C120.564 36.1106 121.271 36.9249 122.151 37.5241C123.001 38.041 123.922 38.3262 124.97 38.3262ZM138.54 42.8357V21.3042H143.835L144.015 24.1026C144.681 23.0299 145.625 22.1521 146.749 21.5598C147.874 20.9675 149.138 20.6824 150.412 20.7339C151.869 20.709 153.3 21.1084 154.528 21.8819C155.756 22.6555 156.725 23.7689 157.314 25.0829C157.947 26.4376 158.29 28.113 158.29 29.9845V42.8892H152.526V30.7332C152.526 29.2359 152.183 28.0595 151.496 27.1862C150.81 26.3306 149.87 25.8672 148.677 25.8672C147.81 25.8672 147.051 26.0454 146.383 26.4376C145.75 26.8475 145.226 27.3644 144.829 28.0952C144.427 28.8339 144.227 29.6634 144.25 30.5014V42.8357H138.54ZM161.163 42.8357V12.4635H166.927V24.0491C167.708 23.0096 168.724 22.1638 169.894 21.5791C171.064 20.9943 172.356 20.6866 173.667 20.6804C175.029 20.6607 176.378 20.9437 177.613 21.5084C178.849 22.0731 179.94 22.9049 180.805 23.9422C182.739 26.1569 183.764 29.0052 183.678 31.9274C183.709 34.9164 182.644 37.8158 180.678 40.0908C179.77 41.1413 178.639 41.9826 177.365 42.5554C176.091 43.1282 174.706 43.4186 173.306 43.4061C171.989 43.4416 170.684 43.1462 169.515 42.5475C168.345 41.9489 167.349 41.0667 166.62 39.9839L166.458 42.7822L161.163 42.8357ZM172.33 38.3262C173.378 38.3262 174.3 38.041 175.149 37.5241C175.962 36.9538 176.595 36.2052 177.119 35.2961C177.57 34.3871 177.805 33.2998 177.805 32.0878C177.876 31.0351 177.668 29.9824 177.202 29.0326C176.737 28.0828 176.029 27.2685 175.149 26.6693C174.303 26.1495 173.327 25.8739 172.33 25.8739C171.334 25.8739 170.357 26.1495 169.511 26.6693C168.716 27.2396 168.066 27.9883 167.56 28.8973C167.055 29.8908 166.819 30.9958 166.873 32.1056C166.803 33.1583 167.011 34.211 167.476 35.1608C167.942 36.1106 168.649 36.9249 169.529 37.5241C170.379 38.041 171.246 38.3262 172.33 38.3262Z" fill="#20B1AB"/>
</g>
<defs>
<clipPath id="clip0_2149_3932">
<rect width="184.308" height="57.037" fill="white" transform="translate(0 0.46875)"/>
</clipPath>
</defs>
</svg>
