<svg width="185" height="56" viewBox="0 0 185 56" fill="none" xmlns="http://www.w3.org/2000/svg">
<g clip-path="url(#clip0_2149_3936)">
<path fill-rule="evenodd" clip-rule="evenodd" d="M114.344 43.7995C103.634 51.7591 88.1094 56.0058 74.7434 56.0058C56.0021 56.0058 39.1302 49.0169 26.3659 37.393C25.3631 36.479 26.2616 35.2333 27.465 35.9451C41.2402 44.026 58.2726 48.8875 75.8666 48.8875C87.7323 48.8875 100.785 46.4122 112.788 41.2757C114.601 40.4992 116.117 42.4729 114.344 43.7995Z" fill="#20B1AB"/>
<path fill-rule="evenodd" clip-rule="evenodd" d="M118.796 38.6522C117.432 36.8888 109.746 37.819 106.296 38.2315C105.245 38.361 105.085 37.4388 106.031 36.7755C112.153 32.4317 122.197 33.6855 123.369 35.1415C124.54 36.6057 123.064 46.7573 117.311 51.6026C116.429 52.3468 115.587 51.9504 115.98 50.9636C117.271 47.7118 120.168 40.4237 118.796 38.6522Z" fill="#20B1AB"/>
<path fill-rule="evenodd" clip-rule="evenodd" d="M106.536 6.11831V1.89587C106.536 1.25684 107.017 0.828125 107.595 0.828125H126.344C126.946 0.828125 127.427 1.26493 127.427 1.89587V5.51164C127.419 6.11831 126.914 6.91103 126.015 8.16482L116.3 22.1507C119.91 22.0617 123.721 22.6036 126.994 24.4641C127.732 24.8847 127.933 25.4995 127.989 26.1062V30.6117C127.989 31.2265 127.315 31.9464 126.609 31.5743C120.84 28.5248 113.179 28.1931 106.801 31.6067C106.151 31.9626 105.469 31.2508 105.469 30.636V26.3569C105.469 25.6694 105.477 24.4965 106.159 23.453L117.415 7.17797H107.619C107.017 7.17797 106.536 6.74926 106.536 6.11831Z" fill="#20B1AB"/>
<path fill-rule="evenodd" clip-rule="evenodd" d="M38.1411 32.4514H32.4369C31.8913 32.4109 31.4581 31.9984 31.418 31.4726V1.95595C31.418 1.36545 31.9074 0.89629 32.5171 0.89629H37.8362C38.3898 0.92054 38.831 1.34927 38.8712 1.88314V5.74159H38.9755C40.3634 2.01257 42.9708 0.273438 46.4848 0.273438C50.0549 0.273438 52.2853 2.01257 53.8898 5.74159C55.2698 2.01257 58.4067 0.273438 61.7682 0.273438C64.159 0.273438 66.7745 1.26838 68.371 3.50094C70.1761 5.98425 69.8071 9.59193 69.8071 12.7547L69.7991 31.3836C69.7991 31.9741 69.3097 32.4514 68.7 32.4514H63.0038C62.4341 32.4109 61.9768 31.9498 61.9768 31.3836V15.7395C61.9768 14.4938 62.0892 11.3877 61.8164 10.2067C61.3912 8.2249 60.1155 7.66676 58.4628 7.66676C57.0829 7.66676 55.6388 8.59699 55.0532 10.0854C54.4675 11.5737 54.5237 14.0651 54.5237 15.7395V31.3836C54.5237 31.9741 54.0343 32.4514 53.4245 32.4514H47.7283C47.1507 32.4109 46.7014 31.9498 46.7014 31.3836L46.6934 15.7395C46.6934 12.4473 47.2309 7.60205 43.1794 7.60205C39.0798 7.60205 39.2402 12.326 39.2402 15.7395V31.3836C39.2402 31.9741 38.7508 32.4514 38.1411 32.4514" fill="#20B1AB"/>
<path fill-rule="evenodd" clip-rule="evenodd" d="M143.567 0.273438C152.031 0.273438 156.612 7.60205 156.612 16.9205C156.612 25.9236 151.55 33.0661 143.567 33.0661C135.255 33.0661 130.73 25.7375 130.73 16.6051C130.73 7.416 135.311 0.273438 143.567 0.273438ZM143.615 6.29973C139.411 6.29973 139.146 12.0752 139.146 15.6748C139.146 19.2825 139.09 26.9832 143.567 26.9832C147.988 26.9832 148.196 20.7709 148.196 16.9853C148.196 14.4939 148.092 11.5171 147.346 9.15513C146.704 7.10054 145.428 6.29973 143.615 6.29973Z" fill="#20B1AB"/>
<path fill-rule="evenodd" clip-rule="evenodd" d="M167.586 32.4514H161.906C161.336 32.4109 160.879 31.9498 160.879 31.3836L160.871 1.85888C160.919 1.31691 161.393 0.89629 161.97 0.89629H167.257C167.755 0.92054 168.164 1.26029 168.276 1.72137V6.23501H168.38C169.977 2.19861 172.215 0.273438 176.155 0.273438C178.714 0.273438 181.209 1.20367 182.813 3.75169C184.306 6.11367 184.306 10.0854 184.306 12.9408V31.5211C184.242 32.0388 183.768 32.4514 183.207 32.4514H177.486C176.965 32.4109 176.532 32.0226 176.475 31.5211V15.4888C176.475 12.2613 176.844 7.53733 172.905 7.53733C171.517 7.53733 170.242 8.47566 169.608 9.89931C168.806 11.7032 168.701 13.4989 168.701 15.4888V31.3836C168.693 31.9741 168.196 32.4514 167.586 32.4514" fill="#20B1AB"/>
<path fill-rule="evenodd" clip-rule="evenodd" d="M91.5851 18.362C91.5851 20.6026 91.6413 22.4712 90.5181 24.4611C89.6115 26.0789 88.1674 27.0738 86.5709 27.0738C84.3807 27.0738 83.097 25.3913 83.097 22.908C83.097 18.0061 87.4534 17.1163 91.5851 17.1163V18.362ZM97.3375 32.3802C96.9604 32.7199 96.4149 32.7442 95.9897 32.5177C94.0963 30.9322 93.7513 30.1961 92.7164 28.6835C89.5875 31.9029 87.3651 32.8655 83.3136 32.8655C78.5079 32.8655 74.7773 29.8807 74.7773 23.9029C74.7773 19.2356 77.2805 16.0566 80.8586 14.5035C83.9554 13.1284 88.2797 12.8857 91.5851 12.5056V11.7614C91.5851 10.3943 91.6894 8.77653 90.8871 7.59555C90.1972 6.53589 88.8654 6.09909 87.686 6.09909C85.5119 6.09909 83.5784 7.22345 83.105 9.55308C83.0087 10.0708 82.6317 10.5804 82.1102 10.6046L76.5825 10.0061C76.1171 9.90091 75.5957 9.52072 75.7321 8.80081C76.9997 2.03843 83.0649 0 88.4883 0C91.2642 0 94.8905 0.744187 97.0808 2.8635C99.8566 5.47623 99.5919 8.96258 99.5919 12.7563V21.7189C99.5919 24.4125 100.699 25.5935 101.742 27.0495C102.103 27.5672 102.183 28.1901 101.718 28.5783C100.555 29.5571 98.4847 31.3771 97.3455 32.3963L97.3375 32.3801" fill="#20B1AB"/>
<path fill-rule="evenodd" clip-rule="evenodd" d="M16.8078 18.362C16.8078 20.6026 16.8639 22.4712 15.7407 24.4611C14.8342 26.0789 13.3981 27.0738 11.7935 27.0738C9.6033 27.0738 8.32767 25.3913 8.32767 22.908C8.32767 18.0061 12.6841 17.1163 16.8078 17.1163V18.362ZM22.5601 32.3802C22.1831 32.7199 21.6375 32.7442 21.2123 32.5177C19.3189 30.9322 18.982 30.1961 17.939 28.6835C14.8101 31.9029 12.5958 32.8655 8.53626 32.8655C3.73862 32.8655 0 29.8807 0 23.9029C0 19.2356 2.51114 16.0566 6.08128 14.5035C9.17809 13.1284 13.5024 12.8857 16.8078 12.5056V11.7614C16.8078 10.3943 16.9121 8.77653 16.1178 7.59555C15.4198 6.53589 14.088 6.09908 12.9167 6.09908C10.7425 6.09908 8.80102 7.22345 8.32767 9.55308C8.2314 10.0708 7.85432 10.5804 7.34087 10.6046L1.80513 10.0061C1.33981 9.90091 0.826348 9.52072 0.954713 8.80081C2.23034 2.03843 8.28755 0 13.711 0C16.4869 0 20.1132 0.744187 22.3034 2.8635C25.0793 5.47623 24.8145 8.96258 24.8145 12.7563V21.7189C24.8145 24.4125 25.9217 25.5935 26.9647 27.0495C27.3337 27.5672 27.4139 28.1901 26.9486 28.5783C25.7853 29.5571 23.7154 31.3771 22.5762 32.3963L22.5601 32.3801" fill="#20B1AB"/>
</g>
<defs>
<clipPath id="clip0_2149_3936">
<rect width="184.308" height="56" fill="white"/>
</clipPath>
</defs>
</svg>
