<svg width="180" height="54" viewBox="0 0 180 54" fill="none" xmlns="http://www.w3.org/2000/svg">
<g clip-path="url(#clip0_2149_3947)">
<path d="M133.75 51.8508L148.673 35.3875L133.75 18.9219H149.495L156.886 26.9198L164.003 18.9219H179.199L164.347 35.3195L179.403 51.8508H163.593L156.269 43.7872L149.014 51.8508H133.75Z" fill="#20B1AB"/>
<path d="M133.753 11.5458H116.852V18.9273H133.753V30.0518H116.852V40.2627H133.753V51.8563H104.43V-0.015625H133.753V11.5458Z" fill="#20B1AB"/>
<path d="M92.0564 -0.015625V21.2128H91.9203C89.1817 18.1222 85.7601 17.0481 81.79 17.0481C73.6575 17.0481 67.5316 22.4763 65.3812 29.6531C62.9289 21.7453 56.6046 16.8999 47.2266 16.8999C39.6108 16.8999 33.5968 20.2565 30.4584 25.7259V18.9281H14.7164V11.5474H31.8953V-0.015625H0.683594V51.857H14.7164V30.0518H28.7032C28.2862 31.6537 28.0637 33.3686 28.0637 35.1783C28.0637 45.9987 36.4824 53.591 47.2266 53.591C56.2615 53.591 62.2155 49.4263 65.3649 41.8333H53.3393C51.7125 44.1142 50.4786 44.7918 47.2266 44.7918C43.4556 44.7918 40.2044 41.5613 40.2044 37.7319H64.6911C65.7531 46.3265 72.5715 53.7385 81.9285 53.7385C85.9647 53.7385 89.6602 51.789 91.9203 48.4974H92.0564V51.8555H104.427V-0.015625H92.0564ZM40.5949 30.2069C41.3753 26.9122 43.9777 24.7588 47.2266 24.7588C50.8031 24.7588 53.2732 26.8458 53.9228 30.2069C54.1967 30.2069 40.5949 30.2069 40.5949 30.2069ZM84.5495 43.9584C79.9897 43.9584 77.1562 39.7868 77.1562 35.4311C77.1562 30.7752 79.6209 26.2981 84.5495 26.2981C89.6602 26.2981 91.6962 30.7752 91.6962 35.4311C91.6954 39.8464 89.538 43.9584 84.5495 43.9584Z" fill="#20B1AB"/>
</g>
<defs>
<clipPath id="clip0_2149_3947">
<rect width="178.94" height="53.4722" fill="white" transform="translate(0.683594)"/>
</clipPath>
</defs>
</svg>
