<svg width="219" height="47" viewBox="0 0 219 47" fill="none" xmlns="http://www.w3.org/2000/svg">
<g clip-path="url(#clip0_2149_3955)">
<path d="M77.0595 27.2055L75.7584 30.8697H75.6499C75.4331 30.0435 75.0355 28.7861 74.3849 27.2773L67.4092 9.85392H60.5781V37.6236H65.0961V20.4876C65.0961 19.4098 65.0961 18.1884 65.0599 16.6796C65.0238 15.9252 64.9515 15.3504 64.9153 14.9193H65.0238C65.2406 15.997 65.4936 16.7873 65.6743 17.2903L74.0596 37.5517H77.2403L85.5532 17.1107C85.734 16.6437 85.9147 15.7096 86.0954 14.9193H86.2038C86.0954 16.967 86.0231 18.7991 85.987 19.9128V37.5158H90.794V9.78207H84.2159L77.0595 27.2055ZM95.3481 17.6136H100.047V37.5158H95.3481V17.6136ZM97.7336 9.20728C96.9384 9.20728 96.2878 9.49467 95.7457 9.99762C95.2035 10.5006 94.9144 11.1472 94.9144 11.9375C94.9144 12.692 95.2035 13.3386 95.7457 13.8415C96.2878 14.3445 96.9384 14.596 97.7336 14.596C98.5287 14.596 99.2155 14.3086 99.7215 13.8415C100.264 13.3386 100.553 12.692 100.553 11.9375C100.553 11.1831 100.264 10.5365 99.7215 9.99762C99.2516 9.49467 98.5649 9.20728 97.7336 9.20728ZM116.709 17.434C115.841 17.2544 114.938 17.1466 114.07 17.1466C111.938 17.1466 109.986 17.6136 108.36 18.5476C106.733 19.4817 105.432 20.775 104.601 22.3916C103.733 24.0441 103.3 25.9481 103.3 28.1395C103.3 30.0435 103.733 31.7319 104.565 33.2767C105.396 34.7855 106.553 36.007 108.107 36.8332C109.589 37.6595 111.324 38.0906 113.275 38.0906C115.516 38.0906 117.432 37.6236 118.95 36.7614L118.986 36.7254V32.4145L118.805 32.5582C118.119 33.0611 117.323 33.4922 116.528 33.7437C115.697 34.0311 114.938 34.1748 114.287 34.1748C112.408 34.1748 110.926 33.6359 109.878 32.4504C108.793 31.3008 108.251 29.7202 108.251 27.7443C108.251 25.6966 108.793 24.08 109.914 22.8945C111.034 21.709 112.516 21.0983 114.323 21.0983C115.841 21.0983 117.396 21.6012 118.805 22.6071L118.986 22.7508V18.1884L118.95 18.1525C118.335 17.901 117.649 17.6136 116.709 17.434ZM132.214 17.2903C131.058 17.2903 129.974 17.6495 129.034 18.4039C128.239 19.0506 127.697 19.9846 127.227 21.0983H127.191V17.6136H122.492V37.5158H127.191V27.3491C127.191 25.6248 127.552 24.1878 128.347 23.146C129.142 22.0682 130.154 21.5294 131.383 21.5294C131.817 21.5294 132.251 21.6372 132.793 21.709C133.299 21.8527 133.66 21.9964 133.913 22.176L134.094 22.3197V17.6495L133.985 17.6136C133.66 17.3981 133.01 17.2903 132.214 17.2903ZM145.009 17.1825C141.72 17.1825 139.082 18.1525 137.238 20.0565C135.359 21.9605 134.455 24.583 134.455 27.888C134.455 30.9775 135.395 33.4922 137.202 35.3244C139.009 37.1206 141.467 38.0546 144.539 38.0546C147.756 38.0546 150.322 37.0847 152.166 35.1448C154.045 33.2048 154.949 30.6183 154.949 27.421C154.949 24.2596 154.081 21.7449 152.31 19.9128C150.611 18.0806 148.118 17.1825 145.009 17.1825ZM148.768 32.4864C147.901 33.6 146.527 34.1389 144.829 34.1389C143.13 34.1389 141.756 33.6 140.78 32.4145C139.805 31.3008 139.335 29.6842 139.335 27.6365C139.335 25.517 139.841 23.9004 140.78 22.7508C141.756 21.6012 143.094 21.0264 144.792 21.0264C146.455 21.0264 147.756 21.5653 148.696 22.679C149.636 23.7926 150.142 25.4092 150.142 27.5288C150.069 29.6842 149.672 31.3727 148.768 32.4864ZM165.43 25.8762C163.948 25.2655 163.009 24.7985 162.575 24.4033C162.214 24.0441 162.033 23.5412 162.033 22.8945C162.033 22.3556 162.25 21.8168 162.792 21.4575C163.334 21.0983 163.948 20.9187 164.852 20.9187C165.647 20.9187 166.478 21.0624 167.274 21.2779C168.069 21.4935 168.792 21.8168 169.37 22.2479L169.551 22.3916V18.0088L169.442 17.9729C168.9 17.7573 168.177 17.5418 167.31 17.3621C166.442 17.2184 165.647 17.1466 164.997 17.1466C162.756 17.1466 160.912 17.6855 159.467 18.871C158.021 19.9846 157.334 21.4935 157.334 23.2538C157.334 24.1878 157.479 25.0141 157.804 25.6966C158.129 26.3792 158.599 27.0258 159.25 27.5647C159.9 28.0676 160.84 28.6424 162.141 29.1813C163.226 29.6483 164.057 30.0076 164.563 30.295C165.069 30.5824 165.394 30.9057 165.647 31.1571C165.828 31.4445 165.936 31.8038 165.936 32.2708C165.936 33.6 164.924 34.2467 162.864 34.2467C162.069 34.2467 161.238 34.103 160.262 33.7796C159.286 33.4563 158.382 32.9893 157.623 32.4504L157.443 32.3067V36.8691L157.551 36.9051C158.238 37.2284 159.069 37.4439 160.081 37.6954C161.093 37.875 161.997 38.0187 162.792 38.0187C165.213 38.0187 167.201 37.4799 168.611 36.2943C170.057 35.1448 170.816 33.6719 170.816 31.7679C170.816 30.4387 170.454 29.2531 169.659 28.355C168.611 27.4928 167.31 26.5947 165.43 25.8762ZM183.213 17.1825C179.924 17.1825 177.285 18.1525 175.442 20.0565C173.599 21.9605 172.659 24.583 172.659 27.888C172.659 30.9775 173.599 33.4922 175.406 35.3244C177.213 37.1206 179.671 38.0546 182.743 38.0546C185.96 38.0546 188.526 37.0847 190.369 35.1448C192.249 33.2048 193.152 30.6183 193.152 27.421C193.152 24.2596 192.285 21.7449 190.514 19.9128C188.815 18.0806 186.321 17.1825 183.213 17.1825ZM186.936 32.4864C186.068 33.6 184.695 34.1389 182.996 34.1389C181.261 34.1389 179.924 33.6 178.948 32.4145C177.972 31.3008 177.502 29.6842 177.502 27.6365C177.502 25.517 178.008 23.9004 178.948 22.7508C179.924 21.6012 181.261 21.0264 182.96 21.0264C184.586 21.0264 185.924 21.5653 186.863 22.679C187.803 23.7926 188.309 25.4092 188.309 27.5288C188.309 29.6842 187.839 31.3727 186.936 32.4864ZM218.272 21.4575V17.6136H213.537V11.722L213.393 11.7579L208.911 13.0871L208.802 13.123V17.6136H201.718V15.0989C201.718 13.9493 202.007 13.0512 202.513 12.4764C203.019 11.9016 203.778 11.6142 204.718 11.6142C205.369 11.6142 206.056 11.7579 206.815 12.0812L206.995 12.189V8.12954L206.887 8.09362C206.236 7.87807 205.369 7.73438 204.248 7.73438C202.839 7.73438 201.61 8.0577 200.489 8.59656C199.369 9.20728 198.538 10.0335 197.923 11.1472C197.309 12.2249 196.984 13.4464 196.984 14.8474V17.6136H193.694V21.4216H196.984V37.5158H201.718V21.4575H208.802V31.696C208.802 35.8992 210.79 38.0187 214.766 38.0187C215.417 38.0187 216.103 37.911 216.754 37.8032C217.441 37.6595 217.947 37.4799 218.236 37.3362L218.272 37.3002V33.4563L218.091 33.6C217.802 33.7796 217.549 33.9233 217.115 34.0311C216.754 34.1389 216.429 34.1748 216.176 34.1748C215.236 34.1748 214.585 33.9593 214.116 33.4204C213.682 32.9174 213.465 32.0912 213.465 30.8697V21.4575H218.272Z" fill="#20B1AB"/>
<path d="M0 0.515625H22.1559V22.5373H0V0.515625Z" fill="#20B1AB"/>
<path d="M24.4688 0.515625H46.6247V22.5373H24.4688V0.515625Z" fill="#20B1AB"/>
<path d="M0 24.8281H22.1559V46.8498H0V24.8281Z" fill="#20B1AB"/>
<path d="M24.4688 24.8281H46.6247V46.8498H24.4688V24.8281Z" fill="#20B1AB"/>
</g>
<defs>
<clipPath id="clip0_2149_3955">
<rect width="218.306" height="46.3426" fill="white" transform="translate(0 0.507812)"/>
</clipPath>
</defs>
</svg>
