<svg width="25" height="25" viewBox="0 0 25 25" fill="none" xmlns="http://www.w3.org/2000/svg">
<path fill-rule="evenodd" clip-rule="evenodd" d="M23.996 12.6132C23.996 18.7466 19.0239 23.7187 12.8906 23.7187C6.75722 23.7187 1.78516 18.7466 1.78516 12.6132C1.78516 6.47988 6.75722 1.50781 12.8906 1.50781C19.0239 1.50781 23.996 6.47988 23.996 12.6132ZM24.996 12.6132C24.996 19.2989 19.5762 24.7187 12.8906 24.7187C6.20494 24.7187 0.785156 19.2989 0.785156 12.6132C0.785156 5.92759 6.20494 0.507812 12.8906 0.507812C19.5762 0.507812 24.996 5.92759 24.996 12.6132ZM10.2494 8.71379C11.6838 6.46106 12.89 4.54394 12.9299 4.45352C12.9698 4.36304 13.0348 4.28906 13.0743 4.28906C13.1328 4.28906 18.4965 12.6273 18.5962 12.8732C18.6155 12.9207 17.8463 13.3741 15.8647 14.4833L13.1064 16.0272L10.3473 14.4841C8.37508 13.3811 7.59584 12.9223 7.61489 12.8753C7.62955 12.8391 8.81506 10.9665 10.2494 8.71379ZM13.106 21.2891C13.0836 21.2897 7.72775 14.1571 7.62143 13.9851C7.57969 13.9175 7.58624 13.9174 7.69526 13.9839C7.76102 14.024 9.00736 14.7233 10.4649 15.5378L13.1149 17.0187L13.2458 16.9273C13.4593 16.7782 18.5776 13.925 18.5976 13.9438C18.6188 13.9639 13.143 21.288 13.106 21.2891Z" fill="#65CDAA"/>
</svg>
