<svg width="26" height="25" viewBox="0 0 26 25" fill="none" xmlns="http://www.w3.org/2000/svg">
<path fill-rule="evenodd" clip-rule="evenodd" d="M23.8342 15.4804C22.2524 21.4062 16.1662 24.9278 10.2404 23.346C4.31451 21.7641 0.792963 15.678 2.37478 9.75209C3.9566 3.82623 10.0428 0.304682 15.9687 1.8865C21.8945 3.46832 25.4161 9.5545 23.8342 15.4804ZM24.8004 15.7383C23.0762 22.1977 16.4419 26.0364 9.98247 24.3121C3.523 22.5879 -0.315644 15.9537 1.40861 9.49419C3.13287 3.03472 9.76709 -0.803925 16.2266 0.920331C22.686 2.64459 26.5247 9.27881 24.8004 15.7383ZM14.6501 7.12399C16.4171 7.27712 17.8171 7.81929 17.9745 9.44037C18.0917 10.6266 17.5962 11.3391 16.803 11.7439C18.1096 12.0564 18.9289 12.8321 18.769 14.5723C18.5711 16.7336 16.961 17.3148 14.6598 17.4491L14.6616 19.7194L13.2927 19.7208L13.2912 17.4809C12.9365 17.4815 12.5732 17.4789 12.1977 17.4715L12.1999 19.7218L10.8326 19.7229L10.8298 17.4485C10.7018 17.4478 10.5728 17.4465 10.4429 17.4453C10.248 17.4434 10.0509 17.4414 9.85194 17.4414L8.07062 17.4431L8.34104 15.8082C8.34104 15.8082 9.3536 15.823 9.33607 15.8075C9.72344 15.8064 9.82574 15.5281 9.84991 15.3536L9.84685 11.7647C9.88036 11.7644 9.91326 11.7644 9.94499 11.7644C9.96079 11.7644 9.97629 11.7644 9.99144 11.7644C9.93492 11.7567 9.88501 11.7552 9.84675 11.755L9.8442 9.19316C9.79145 8.91545 9.61069 8.59374 9.05625 8.5941C9.07303 8.57547 8.06223 8.5957 8.06223 8.5957L8.06048 7.13375L9.94842 7.13261L9.9486 7.13959C10.2324 7.13913 10.5234 7.13335 10.8198 7.12702L10.8181 4.87888L12.1862 4.87762L12.1881 7.08164C12.5535 7.074 12.9214 7.06654 13.2812 7.06616L13.2791 4.87664L14.6479 4.8752L14.6501 7.12399ZM12.4958 15.8185C13.6166 15.833 16.0663 15.8647 16.0641 14.3054C16.0627 12.7108 13.7091 12.7686 12.5607 12.7968C12.4323 12.7999 12.3191 12.8027 12.2258 12.8028L12.2283 15.8162C12.3049 15.8161 12.395 15.8172 12.4958 15.8185ZM12.4496 11.4258C13.3847 11.4403 15.4244 11.4719 15.4234 10.0544C15.4219 8.60463 13.4607 8.65844 12.5028 8.68472C12.3951 8.68768 12.3001 8.69029 12.2219 8.69037L12.2244 11.4234C12.2888 11.4233 12.3647 11.4245 12.4496 11.4258Z" fill="#65CDAA"/>
</svg>
