<svg width="58" height="58" viewBox="0 0 58 58" fill="none" xmlns="http://www.w3.org/2000/svg">
<path d="M28.75 0C12.88 0 0 12.88 0 28.75C0 44.62 12.88 57.5 28.75 57.5C44.62 57.5 57.5 44.62 57.5 28.75C57.5 12.88 44.62 0 28.75 0ZM28.75 51.75C16.0713 51.75 5.75 41.4287 5.75 28.75C5.75 16.0713 16.0713 5.75 28.75 5.75C41.4287 5.75 51.75 16.0713 51.75 28.75C51.75 41.4287 41.4287 51.75 28.75 51.75ZM41.9463 16.0425L23 34.9888L15.5537 27.5713L11.5 31.625L23 43.125L46 20.125L41.9463 16.0425Z" fill="#65CDAA"/>
</svg>
