<svg width="25" height="25" viewBox="0 0 25 25" fill="none" xmlns="http://www.w3.org/2000/svg">
<circle cx="12.1054" cy="12.1054" r="11.6054" stroke="#65CDAA"/>
<path fill-rule="evenodd" clip-rule="evenodd" d="M12.1448 3.9457C12.1048 4.03613 10.8986 5.95324 9.46426 8.20598C8.0299 10.4587 6.8444 12.3313 6.82973 12.3675C6.81068 12.4145 7.58993 12.8733 9.56211 13.9763L12.3212 15.5194L15.0795 13.9755C17.0612 12.8663 17.8303 12.4129 17.8111 12.3654C17.7114 12.1195 12.3476 3.78125 12.2891 3.78125C12.2496 3.78125 12.1847 3.85523 12.1448 3.9457ZM6.83628 13.4772C6.94259 13.6493 12.2984 20.7819 12.3208 20.7813C12.3578 20.7802 17.8336 13.4561 17.8124 13.436C17.7925 13.4171 12.6742 16.2704 12.4606 16.4195L12.3298 16.5109L9.67974 15.03C8.2222 14.2155 6.97586 13.5162 6.91011 13.4761C6.80108 13.4096 6.79454 13.4097 6.83628 13.4772Z" fill="#65CDAA"/>
</svg>
