<svg width="35" height="34" viewBox="0 0 35 34" fill="none" xmlns="http://www.w3.org/2000/svg">
<path fill-rule="evenodd" clip-rule="evenodd" d="M10.6593 0.102C12.4722 0.0185454 13.0502 0 17.668 0C22.2858 0 22.8638 0.0200909 24.6751 0.102C26.4863 0.183909 27.7227 0.472909 28.8045 0.891727C29.9373 1.31982 30.9651 1.989 31.8151 2.85445C32.6805 3.70291 33.3482 4.72909 33.7747 5.86345C34.1951 6.94527 34.4825 8.18164 34.566 9.98982C34.6494 11.8057 34.668 12.3837 34.668 17C34.668 21.6178 34.6479 22.1958 34.566 24.0086C34.4841 25.8168 34.1951 27.0532 33.7747 28.135C33.3481 29.2695 32.6794 30.2974 31.8151 31.1471C30.9651 32.0125 29.9373 32.6802 28.8045 33.1067C27.7227 33.5271 26.4863 33.8145 24.6781 33.898C22.8638 33.9815 22.2858 34 17.668 34C13.0502 34 12.4722 33.9799 10.6593 33.898C8.85115 33.8161 7.61479 33.5271 6.53297 33.1067C5.39848 32.6801 4.3706 32.0114 3.52088 31.1471C2.65601 30.2981 1.98673 29.2707 1.5597 28.1365C1.14088 27.0547 0.853423 25.8184 0.769969 24.0102C0.686514 22.1943 0.667969 21.6163 0.667969 17C0.667969 12.3822 0.68806 11.8042 0.769969 9.99291C0.851878 8.18164 1.14088 6.94527 1.5597 5.86345C1.98736 4.72922 2.65715 3.70185 3.52242 2.85291C4.37094 1.98823 5.39779 1.31896 6.53142 0.891727C7.61324 0.472909 8.84961 0.185455 10.6578 0.102H10.6593ZM24.5375 3.162C22.7448 3.08009 22.207 3.06309 17.668 3.06309C13.129 3.06309 12.5911 3.08009 10.7984 3.162C9.14015 3.23773 8.2407 3.51436 7.64106 3.74773C6.84824 4.05682 6.28106 4.42309 5.68606 5.01809C5.12204 5.56681 4.68797 6.2348 4.4157 6.97309C4.18233 7.57273 3.9057 8.47218 3.82997 10.1305C3.74806 11.9232 3.73106 12.461 3.73106 17C3.73106 21.539 3.74806 22.0768 3.82997 23.8695C3.9057 25.5278 4.18233 26.4273 4.4157 27.0269C4.6877 27.7641 5.12197 28.4333 5.68606 28.9819C6.2347 29.546 6.90388 29.9803 7.64106 30.2523C8.2407 30.4856 9.14015 30.7623 10.7984 30.838C12.5911 30.9199 13.1274 30.9369 17.668 30.9369C22.2085 30.9369 22.7448 30.9199 24.5375 30.838C26.1958 30.7623 27.0952 30.4856 27.6949 30.2523C28.4877 29.9432 29.0549 29.5769 29.6499 28.9819C30.214 28.4333 30.6482 27.7641 30.9202 27.0269C31.1536 26.4273 31.4302 25.5278 31.506 23.8695C31.5879 22.0768 31.6049 21.539 31.6049 17C31.6049 12.461 31.5879 11.9232 31.506 10.1305C31.4302 8.47218 31.1536 7.57273 30.9202 6.97309C30.6112 6.18027 30.2449 5.61309 29.6499 5.01809C29.1011 4.45411 28.4331 4.02005 27.6949 3.74773C27.0952 3.51436 26.1958 3.23773 24.5375 3.162ZM15.4966 22.2406C16.7093 22.7454 18.0596 22.8136 19.3169 22.4334C20.5742 22.0532 21.6605 21.2483 22.3903 20.1562C23.1201 19.0641 23.4481 17.7524 23.3182 16.4453C23.1884 15.1383 22.6088 13.9168 21.6784 12.9895C21.0853 12.3968 20.3682 11.943 19.5787 11.6607C18.7891 11.3784 17.9468 11.2746 17.1124 11.357C16.2779 11.4393 15.4721 11.7055 14.7529 12.1367C14.0338 12.5678 13.4191 13.153 12.9533 13.8501C12.4874 14.5473 12.1819 15.3391 12.0588 16.1685C11.9356 16.9979 11.9979 17.8443 12.2412 18.6467C12.4844 19.4491 12.9025 20.1877 13.4654 20.8091C14.0284 21.4306 14.7221 21.9195 15.4966 22.2406ZM11.4892 10.8213C12.3006 10.0099 13.2639 9.36623 14.3241 8.9271C15.3842 8.48798 16.5205 8.26196 17.668 8.26196C18.8155 8.26196 19.9517 8.48798 21.0119 8.9271C22.072 9.36623 23.0353 10.0099 23.8467 10.8213C24.6581 11.6327 25.3017 12.5959 25.7409 13.6561C26.18 14.7162 26.406 15.8525 26.406 17C26.406 18.1475 26.18 19.2838 25.7409 20.3439C25.3017 21.4041 24.6581 22.3673 23.8467 23.1787C22.208 24.8174 19.9854 25.738 17.668 25.738C15.3505 25.738 13.1279 24.8174 11.4892 23.1787C9.85054 21.54 8.92993 19.3175 8.92993 17C8.92993 14.6825 9.85054 12.46 11.4892 10.8213ZM28.344 9.56327C28.545 9.3736 28.706 9.14551 28.8173 8.8925C28.9287 8.6395 28.9881 8.36673 28.9922 8.09035C28.9962 7.81396 28.9447 7.53957 28.8408 7.28343C28.7369 7.02729 28.5826 6.79461 28.3872 6.59915C28.1917 6.4037 27.959 6.24944 27.7029 6.14553C27.4468 6.04161 27.1724 5.99014 26.896 5.99417C26.6196 5.9982 26.3468 6.05765 26.0938 6.16899C25.8408 6.28032 25.6127 6.44129 25.4231 6.64236C25.0542 7.03341 24.8522 7.55282 24.8601 8.09035C24.8679 8.62787 25.0849 9.14118 25.465 9.5213C25.8452 9.90143 26.3585 10.1184 26.896 10.1263C27.4335 10.1341 27.9529 9.93216 28.344 9.56327Z" fill="#65CDAA"/>
</svg>
