<svg width="34" height="33" viewBox="0 0 34 33" fill="none" xmlns="http://www.w3.org/2000/svg">
<path fill-rule="evenodd" clip-rule="evenodd" d="M5.31526 1H28.5125C30.4513 1 32.023 2.57173 32.023 4.51057V27.7078C32.023 29.6466 30.4513 31.2183 28.5125 31.2183H5.31525C3.37642 31.2183 1.80469 29.6466 1.80469 27.7078V4.51057C1.80469 2.57173 3.37642 1 5.31526 1ZM0.804688 4.51057C0.804688 2.01945 2.82414 0 5.31526 0H28.5125C31.0036 0 33.023 2.01945 33.023 4.51057V27.7078C33.023 30.1989 31.0036 32.2183 28.5125 32.2183H5.31525C2.82414 32.2183 0.804688 30.1989 0.804688 27.7078V4.51057ZM12.7993 7.89965C12.7993 9.50108 11.5011 10.7993 9.89965 10.7993C8.29822 10.7993 7 9.50108 7 7.89965C7 6.29822 8.29822 5 9.89965 5C11.5011 5 12.7993 6.29822 12.7993 7.89965ZM7.64437 12.7324C7.64437 12.3765 7.93286 12.088 8.28873 12.088H11.5106C11.8664 12.088 12.1549 12.3765 12.1549 12.7324V24.9754C12.1549 25.3312 11.8664 25.6197 11.5106 25.6197H8.28873C7.93286 25.6197 7.64437 25.3312 7.64437 24.9754V12.7324ZM17.6321 12.0881L14.7324 12.088C14.3765 12.088 14.088 12.3765 14.088 12.7324V24.9754C14.088 25.3312 14.3765 25.6197 14.7324 25.6197L17.6321 25.6198C17.9879 25.6198 18.2764 25.3313 18.2764 24.9754V17.8873C18.3838 17.243 19.3074 15.3099 20.8539 15.3099C22.4004 15.3099 23.0018 17.0282 23.1092 17.8873V24.9754C23.1092 25.3313 23.3977 25.6198 23.7535 25.6198L26.6532 25.6197C27.0091 25.6197 27.2975 25.3313 27.2975 24.9754L27.2976 17.8873C27.4049 15.8468 26.792 12.1006 23.1092 11.7658C21.9278 11.6584 19.5652 11.7659 18.2764 13.3768V12.7324C18.2764 12.3765 17.9879 12.0881 17.6321 12.0881Z" fill="#65CDAA"/>
</svg>
