<svg width="51" height="51" viewBox="0 0 51 51" fill="none" xmlns="http://www.w3.org/2000/svg">
<path d="M10.03 5.66667C10.2 8.18833 10.625 10.6533 11.305 13.005L7.905 16.405C6.74333 13.005 6.00667 9.40667 5.75167 5.66667H10.03ZM37.9667 39.7233C40.375 40.4033 42.84 40.8283 45.3333 40.9983V45.22C41.5933 44.965 37.995 44.2283 34.5667 43.095L37.9667 39.7233ZM12.75 0H2.83333C1.275 0 0 1.275 0 2.83333C0 29.4383 21.5617 51 48.1667 51C49.725 51 51 49.725 51 48.1667V38.2783C51 36.72 49.725 35.445 48.1667 35.445C44.6533 35.445 41.225 34.8783 38.0517 33.83C37.7683 33.7167 37.4567 33.6883 37.1733 33.6883C36.4367 33.6883 35.7283 33.9717 35.1617 34.51L28.9283 40.7433C20.91 36.635 14.3367 30.09 10.2567 22.0717L16.49 15.8383C17.2833 15.045 17.51 13.94 17.1983 12.9483C16.15 9.775 15.5833 6.375 15.5833 2.83333C15.5833 1.275 14.3083 0 12.75 0Z" fill="#65CDAA"/>
</svg>
