<svg width="35" height="34" viewBox="0 0 35 34" fill="none" xmlns="http://www.w3.org/2000/svg">
<path fill-rule="evenodd" clip-rule="evenodd" d="M33.332 17C33.332 25.8366 26.1686 33 17.332 33C8.49548 33 1.33203 25.8366 1.33203 17C1.33203 8.16345 8.49548 1 17.332 1C26.1686 1 33.332 8.16345 33.332 17ZM17.332 34C26.7209 34 34.332 26.3888 34.332 17C34.332 7.61116 26.7209 0 17.332 0C7.94319 0 0.332031 7.61116 0.332031 17C0.332031 26.3888 7.94319 34 17.332 34ZM18.1832 12.3162C16.5297 13.0039 13.225 14.4274 8.26917 16.5865C7.46442 16.9066 7.04285 17.2196 7.00447 17.5258C6.93961 18.0431 7.58749 18.2468 8.46974 18.5243C8.58974 18.562 8.71409 18.6011 8.84156 18.6425C9.70955 18.9247 10.8772 19.2548 11.4841 19.2679C12.0347 19.2798 12.6493 19.0528 13.3277 18.5869C17.9581 15.4613 20.3484 13.8814 20.4984 13.8473C20.6043 13.8233 20.751 13.7931 20.8504 13.8814C20.9498 13.9698 20.94 14.1371 20.9295 14.182C20.8653 14.4556 18.3221 16.82 17.0061 18.0435C16.5958 18.425 16.3048 18.6955 16.2453 18.7573C16.112 18.8957 15.9762 19.0267 15.8456 19.1525C15.0392 19.9299 14.4345 20.5128 15.8791 21.4648C16.5733 21.9222 17.1288 22.3005 17.683 22.6779C18.2882 23.0901 18.8919 23.5012 19.6729 24.0132C19.8719 24.1436 20.062 24.2791 20.2471 24.4111C20.9514 24.9132 21.5842 25.3643 22.366 25.2924C22.8202 25.2506 23.2895 24.8234 23.5278 23.5495C24.091 20.5388 25.198 14.0155 25.4538 11.3274C25.4762 11.0919 25.448 10.7905 25.4254 10.6582C25.4027 10.5258 25.3554 10.3373 25.1834 10.1978C24.9797 10.0325 24.6653 9.99764 24.5247 10.0001C23.8853 10.0114 22.9043 10.3525 18.1832 12.3162Z" fill="#65CDAA"/>
</svg>
