<svg width="34" height="34" viewBox="0 0 34 34" fill="none" xmlns="http://www.w3.org/2000/svg">
<path d="M24.0346 12.4533C26.1335 13.9591 28.7049 14.845 31.482 14.845V9.48193C30.9564 9.48204 30.4322 9.42704 29.918 9.31771V13.5392C27.1411 13.5392 24.5701 12.6533 22.4706 11.1476V22.0922C22.4706 27.5672 18.048 32.0053 12.5927 32.0053C10.5572 32.0053 8.66535 31.3877 7.09375 30.3286C8.88747 32.1692 11.389 33.311 14.1564 33.311C19.612 33.311 24.0348 28.8729 24.0348 23.3977V12.4533H24.0346V12.4533ZM25.964 7.04261C24.8913 5.86652 24.187 4.34665 24.0346 2.66637V1.97656H22.5525C22.9255 4.1122 24.198 5.93676 25.964 7.04261ZM10.5442 26.1272C9.94487 25.3386 9.621 24.3739 9.62245 23.382C9.62245 20.8779 11.6453 18.8476 14.141 18.8476C14.6061 18.8475 15.0684 18.9189 15.5117 19.0601V13.5771C14.9937 13.5059 14.4709 13.4756 13.9483 13.4867V17.7544C13.5048 17.6132 13.0422 17.5416 12.577 17.542C10.0813 17.542 8.05855 19.5721 8.05855 22.0765C8.05855 23.8473 9.06965 25.3804 10.5442 26.1272Z" fill="#65CDAA"/>
<path d="M22.4773 11.1475C24.5768 12.6532 27.1478 13.5391 29.9247 13.5391V9.3176C28.3746 8.98624 27.0024 8.17332 25.9707 7.04261C24.2046 5.93665 22.9322 4.11209 22.5592 1.97656H18.666V23.3974C18.6572 25.8947 16.6378 27.9167 14.1475 27.9167C12.68 27.9167 11.3763 27.2147 10.5506 26.1272C9.07614 25.3804 8.06504 23.8472 8.06504 22.0766C8.06504 19.5725 10.0878 17.5421 12.5835 17.5421C13.0616 17.5421 13.5225 17.6168 13.9548 17.7545V13.4868C8.59542 13.5979 4.28516 17.9927 4.28516 23.3976C4.28516 26.0956 5.35851 28.5416 7.10058 30.3287C8.67217 31.3877 10.5641 32.0054 12.5995 32.0054C18.0549 32.0054 22.4774 27.5671 22.4774 22.0922V11.1475H22.4773Z" fill="#65CDAA"/>
<path d="M21.9787 1.36169V1.38463L21.9808 1.40748C21.9829 1.43081 21.9852 1.45414 21.9875 1.47745H18.6674H18.1674V1.97745V23.3975C18.1593 25.6207 16.3614 27.4175 14.1489 27.4175C13.6044 27.4175 13.0852 27.3089 12.6115 27.1119C15.3671 27.0975 17.5938 24.8563 17.6033 22.0947V22.093V1.17188H21.9787V1.36169ZM12.601 12.6802H12.6013C12.8868 12.6801 13.1722 12.693 13.4564 12.7187V13.0094C8.05331 13.3747 3.78667 17.8879 3.78667 23.3983C3.78667 24.3806 3.92221 25.3311 4.17554 26.2322C3.56523 24.983 3.22266 23.5782 3.22266 22.093C3.22266 16.8929 7.42305 12.6801 12.601 12.6802ZM7.10209 30.3294C6.53377 29.7464 6.03663 29.0933 5.6247 28.3842L5.21811 28.6794C5.77326 29.3056 6.40634 29.8607 7.10209 30.3294ZM29.3892 8.65956C29.4015 8.66038 29.4138 8.66117 29.4261 8.66193V8.67113C29.4138 8.66731 29.4015 8.66345 29.3892 8.65956Z" stroke="#65CDAA"/>
</svg>
