<svg id="Layer_1" data-name="Layer 1" xmlns="http://www.w3.org/2000/svg" viewBox="0 0 445.87 476.81"><defs><style>.cls-1{fill:none;stroke:#000;stroke-linecap:round;stroke-linejoin:round;stroke-width:8px;}</style></defs><title>vr</title><path class="cls-1" d="M159.2,212.61c-.83,22,5.47,41.6,19.73,58.63,7.45,8.9,16.14,16.58,24.43,24.66a29.66,29.66,0,0,1,4.64,5.15c1.72,2.71,3.06,5.5.67,8.88-1.18,1.66-1.11,4.17-1.11,6.43a125.78,125.78,0,0,1-.5,14.41c-.83,7-4.47,12.57-10.25,16.79-2.14,1.56-4.6,2.78-6.13,5.08a2.35,2.35,0,0,1-2.8.9c-6.82-2.47-13.33.19-19.72,1.57-22.07,4.74-44.14,9.43-66.27,13.92-3.92.79-7.82,1.33-11.76,1.77-.95.11-2.12,0-2.79.51-11.1,8.29-23.72,14.88-31.07,27.39a82.19,82.19,0,0,0-10.45,30.7c-2.31,16.35-5.22,32.64-8.45,48.85C35.84,485.91,42,494,48.77,495.48a21.15,21.15,0,0,1,10.81,5.59" transform="translate(-33.13 -29.19)"/><path class="cls-1" d="M452.9,500.6a20.31,20.31,0,0,1,8.92-4.68c12.55-3.1,14.08-10.75,12.82-20-1.21-8.82-4.09-17.45-3.42-26.5" transform="translate(-33.13 -29.19)"/><path class="cls-1" d="M357.51,114.9c.07-16.13-6.24-30.14-15.6-42.74C326.42,51.3,304.66,40,279.48,35.47c-32.3-5.82-62.9-.77-90.13,18.12-19.6,13.6-30.54,33-34.81,56.2a29,29,0,0,0,0,5.11" transform="translate(-33.13 -29.19)"/><path class="cls-1" d="M184.11,210.05c-8,.86-16.06-.84-24,1.55-5.57,1.68-16.72-3.16-18.64-7.89-.39-1-1.69-2-.7-3.72,2.12-3.71,1.5-8,1.5-12q0-26.3,0-52.58a14.32,14.32,0,0,0-.51-5.09c-2.51-6.36,1.9-11.57,7.1-13.1,3.47-1,6.87-2.2,10.33-.37,1.45.77,2.85.38,4.25.38q92.58.06,185.15,0a21.21,21.21,0,0,0,5.16-.49,15,15,0,0,1,17.91,8.39c.47,1,1,1.76.42,2.82-1.77,3.07-1.4,6.45-1.4,9.77q0,27.21,0,54.43a23.11,23.11,0,0,0,.5,5.58c1.48,5.78-2.52,12-8.51,12.49a24.2,24.2,0,0,0-8,1.53,1.86,1.86,0,0,1-1.93,0c-3.86-1.9-8.07-1.44-12.19-1.44-17.23,0-34.46-.12-51.69.06a40.14,40.14,0,0,1-19.74-4.72c-7.84-4.19-16.13-4.76-23.89-.78-9.49,4.86-19.35,6-29.68,5.45-2.19-.1-4.38,0-6.58,0" transform="translate(-33.13 -29.19)"/><path class="cls-1" d="M465.59,425.7c-.89-12.11-5.94-22.58-13.19-32.09-11.77-15.44-28.37-22.1-46.94-25.7-23.58-4.57-47-9.8-70.5-14.83a18.5,18.5,0,0,0-9.36.19c-2.51.78-3.87-.27-5.18-1.59-3-3.07-6.72-5.34-9.51-8.74a25,25,0,0,1-6-16.34c0-3.26-.09-6.52,0-9.77a16.52,16.52,0,0,0-3.13-10.62c1.78-5.3,5.48-9.06,9.62-12.72,9-8,17.7-16.29,25-25.94,9.28-12.24,14.39-26,16.38-41,.61-4.62,1.31-9.26,1-13.95" transform="translate(-33.13 -29.19)"/><path class="cls-1" d="M189.75,354.05c1.9,4.14,5.39,6.55,9.4,8.37,16.12,7.32,32.8,11.87,50.74,12.75a129.47,129.47,0,0,0,63-12.72c4.09-1.95,7.57-4.44,9.85-8.4" transform="translate(-33.13 -29.19)"/><path class="cls-1" d="M372.54,200.51c3.89.8,7.83.39,11.75.45s7-4,7-7.9c.1-19.54.13-39.08,0-58.62,0-5.07-3.31-7.91-8.4-7.88-3.29,0-6.61-.41-9.87.44" transform="translate(-33.13 -29.19)"/><path class="cls-1" d="M210.89,306.12a21.11,21.11,0,0,1,10.87,5.05c9.22,7.46,20,10.82,31.89,10.8,7.16,0,14.23-.1,21.17-2.3a43.94,43.94,0,0,0,15-7.94c3.28-2.72,6.68-5.37,11.26-5.61" transform="translate(-33.13 -29.19)"/><path class="cls-1" d="M117.14,431.75c.69,8-2.09,15.5-3,23.26-1.85,15.67-6.51,31-5.68,47" transform="translate(-33.13 -29.19)"/><path class="cls-1" d="M395.1,433.14c.62,10.53,3.07,20.79,4.66,31.18,1.91,12.49,4.77,24.9,3.8,37.68" transform="translate(-33.13 -29.19)"/><path class="cls-1" d="M213.71,163.72c2.69-2.3,6.33-3.53,7.56-7.43,1.87-5.9-1.32-11.19-7.56-12.12-12.68-1.87-13.16-1.49-13.16,10.71V180" transform="translate(-33.13 -29.19)"/><path class="cls-1" d="M139.94,126.53c-3.45,0-6.9,0-10.34,0-5.54,0-7.75,2.09-8.48,7.43-.88,6.35-.27,12.72-.43,19.08-.09,3.17.23,6.37-1.41,9.32-.3.54-.66,1.38-.44,1.83,3.46,7.23,1.54,14.9,1.75,22.35.37,13.53,2,15,14.65,14.43,1.56-.07,3.13,0,4.7,0" transform="translate(-33.13 -29.19)"/><path class="cls-1" d="M163.9,141.38c-1.16,3,.13,5.63.93,8.38,2.23,7.74,4.33,15.53,6.63,23.25.61,2.05,2.16,3.64,3.87,5.27,3.72-1.62,4.45-5.22,5.46-8.52,2.13-7,4-14,6.2-20.91a12.27,12.27,0,0,0,.41-7.47" transform="translate(-33.13 -29.19)"/><path class="cls-1" d="M202,162.79c7.51-1.21,13.1.54,15.14,8.81.61,2.48,2.51,4.63,3.62,7,.56,1.22,1.12,1.72,2.39,1.15" transform="translate(-33.13 -29.19)"/></svg>