<svg xmlns="http://www.w3.org/2000/svg" viewBox="0 0 451.8 482.8"><title>vr3</title><path d="M482.7,475c-.4-3-1-6-1.6-8.9-1.1-5.6-2.2-10.9-1.8-16.2a7,7,0,0,0-6.4-7.5,7.1,7.1,0,0,0-7.5,6.5c-.6,7.1.7,13.7,2,20a79,79,0,0,1,1.4,8c1.1,8-.4,10.5-7.5,12.2a27.8,27.8,0,0,0-12,6.3,7,7,0,0,0,4.7,12.2,6.9,6.9,0,0,0,4.7-1.8,14,14,0,0,1,5.9-3.1C478.7,499.2,484.7,489.9,482.7,475Z" transform="translate(-31.3 -26.2)"/><path d="M459.7,426.2a7.1,7.1,0,0,0,7,6.5h.5a7,7,0,0,0,6.5-7.5c-.9-12.4-5.7-24.1-14.6-35.8-14.8-19.4-36.3-25.5-51.2-28.4-17.8-3.4-35.9-7.3-53.4-11.1l-16.9-3.7a26.7,26.7,0,0,0-11.6,0l-4-3.5a26.2,26.2,0,0,1-4.5-4.2,17.7,17.7,0,0,1-4.5-11.9v-3.2c0-2.2-.1-4.2,0-6.3a23.6,23.6,0,0,0-2.2-11.3,29.1,29.1,0,0,1,6.4-7.1c8.3-7.3,17.9-16.3,25.9-26.9,9.7-12.8,15.5-27.3,17.8-44.3v-1a90.4,90.4,0,0,0,.9-9.1l2.4-.2a16.7,16.7,0,0,0,12.1-6.9,17.1,17.1,0,0,0,1.3-2.3h7.6a13.3,13.3,0,0,0,9.5-3.9,15.7,15.7,0,0,0,4.6-11c.1-22,.1-41.2,0-58.7,0-8.8-6.3-14.8-15.3-14.8h-6.5a22,22,0,0,0-12.1-9.4c-1-14.3-6.5-28.2-16.8-42.1-15.6-21-38.1-34.2-66.9-39.4-35.6-6.4-67.6,0-95.3,19.2-20.2,14-32.9,34.5-37.7,60.7a11,11,0,0,0-.2,1.8h-.1l-.5.2a17.7,17.7,0,0,0-11.1,9h-6.2c-9,.1-14.2,4.7-15.4,13.5a89.8,89.8,0,0,0-.5,13.6c0,2.2.1,4.2,0,6.3v1.7c0,1.9,0,3.5-.5,4.4-2,3.6-1.5,6.5-.6,8.2,1.7,3.6,1.4,7.8,1.2,12.6-.1,2.3-.2,4.6-.2,6.9.2,7.5.7,13.5,5.1,17.6s7.7,3.8,12.7,3.8H137c2.9,4.7,9.6,8.7,16.3,10.2a90,90,0,0,0,21.4,57.5,233.2,233.2,0,0,0,18.9,19.5l6,5.7.6.6a21.3,21.3,0,0,1,3,3.3l.8,1.3c-2.3,3.3-2.3,7.1-2.3,9.9v1.7a98.8,98.8,0,0,1-.5,12.3c-.5,4.8-3,8.7-7.4,11.9l-1.4.9a45.5,45.5,0,0,0-4.2,3.3c-6.3-1.4-12.1.1-16.9,1.3l-3.5.9c-20.8,4.4-43.2,9.2-66.2,13.9-3.2.6-6.6,1.1-11.1,1.6h-.4a9.2,9.2,0,0,0-5.8,1.8c-2.4,1.8-4.8,3.5-7.4,5.2-9.4,6.5-19,13.2-25.5,24.2A89.5,89.5,0,0,0,40,428.4c-2.1,14.9-4.8,30.7-8.4,48.5-2.3,11.9,6.9,23.2,16.8,25.4a14.8,14.8,0,0,1,7.4,3.7,6.7,6.7,0,0,0,4.9,2.1,7.1,7.1,0,0,0,5-12,29,29,0,0,0-14.3-7.5c-3.2-.7-6.8-5.3-6-9,3.6-18,6.3-34.1,8.5-49.2a75.9,75.9,0,0,1,9.5-28.2c5-8.3,13-13.9,21.4-19.7l6.6-4.7H92c5-.6,8.8-1.2,12.4-1.9,23-4.7,45.5-9.5,66.4-13.9l4-1c4.3-1.1,8.1-2,11.4-1a25.7,25.7,0,0,0,11.2,8.8c17.9,8.1,35.3,12.5,53.3,13.4h7.1A135.2,135.2,0,0,0,317,368.8a30.5,30.5,0,0,0,11.2-8.7l.6-.2a14.1,14.1,0,0,1,5.8,0l17,3.7c17.5,3.8,35.7,7.7,53.7,11.2,20.3,3.9,33.5,11,42.7,23.1C455.2,407.3,459,416.6,459.7,426.2ZM384,133.6h1.3a1.7,1.7,0,0,1,.1.8c.1,17.5.1,36.6,0,58.5a1.5,1.5,0,0,1-.3,1h-6.3V136.1a22.5,22.5,0,0,1,0-2.6H384ZM194.5,59.3c24.5-17,53-22.7,84.9-16.9,25.1,4.5,44.7,15.9,58,33.9,8.5,11.4,13.1,22.5,14,33.9H162.7C167,88.1,177.7,71,194.5,59.3ZM129.4,193.9c-.3-.9-.6-3-.7-7.5,0-1.9.1-3.8.2-5.8.2-5.1.5-10.8-1.5-16.7a22.5,22.5,0,0,0,1.4-9.2v-1.5c.1-2.3,0-4.6,0-6.8a72.4,72.4,0,0,1,.4-11.5,10.5,10.5,0,0,0,.2-1.3h7v54.4a20.1,20.1,0,0,0,.1,2.5c0,1.3,0,2.5-.1,3.6H136A28.6,28.6,0,0,1,129.4,193.9ZM203.3,285c-6.4-6.1-12.5-11.8-17.9-18.3-12-14.3-17.9-30.4-18.1-49.2a60.7,60.7,0,0,1,8.6-.2A87.1,87.1,0,0,0,186,217a7,7,0,0,0,6.2-7.7,7,7,0,0,0-7.7-6.2,76.6,76.6,0,0,1-8.4.2c-5.1-.1-11-.2-16.9,1.6-2.1.5-8.4-1.9-10.1-3.9,1.5-3.9,1.4-7.8,1.4-11a14.8,14.8,0,0,1-.1-2.1V134.8a19.2,19.2,0,0,0-1-7.1,2.3,2.3,0,0,1-.1-1.8,4.1,4.1,0,0,1,2.7-2l.5-.2c2.4-.7,3.8-1.1,4.5-.7a12.5,12.5,0,0,0,7,1.2H349.7a28.4,28.4,0,0,0,6.9-.7c4-1,7.3.3,9.3,3.6a24.2,24.2,0,0,0-1.1,9.2v55.8a31.1,31.1,0,0,0,.7,7.3,3.6,3.6,0,0,1-.5,2.8,2.5,2.5,0,0,1-1.7,1,34.3,34.3,0,0,0-8.3,1.4c-4.1-1.5-8.1-1.4-11.4-1.3H327.5c-12.3-.1-25-.1-37.5,0a32.6,32.6,0,0,1-16.4-3.9c-10.1-5.4-20.9-5.6-30.4-.8-7.4,3.8-15.4,5.2-26.1,4.7a41.7,41.7,0,0,0-5,0h-2a7,7,0,1,0,0,14h2.2a28,28,0,0,1,4.1,0c13.1.6,23.7-1.3,33.2-6.2,5.4-2.8,11.3-2.6,17.4.7a46.7,46.7,0,0,0,23.1,5.5c12.4-.1,25.1-.1,37.4,0h16.4a26.7,26.7,0,0,1,4,0c-.1,2.4-.5,4.8-.8,7.3v1c-2,14.6-6.9,26.9-15,37.7s-16.3,18-24.1,24.9c-3.4,3.1-7.2,6.6-9.8,11.5-5.1,1.3-8.9,4.4-11.6,6.6a35.7,35.7,0,0,1-12.7,6.7c-6.1,1.9-13,2-19,2-10.9,0-19.8-3-27.5-9.3a29.4,29.4,0,0,0-10.8-5.8c-.5-1.1-1.1-2-1.4-2.6a38.4,38.4,0,0,0-5.2-5.9l-.5-.5Zm48.1,83.2c-16.2-.8-32-4.8-48.2-12.2a19.2,19.2,0,0,1-2.9-1.5l1.8-1.3c7.5-5.5,12-13,13-21.6a109.3,109.3,0,0,0,.6-13.9v-3a19.8,19.8,0,0,1,2.8,1.9c10.1,8.2,22.3,12.4,36.2,12.4h.1c6.7,0,15.1-.1,23.3-2.7a49.1,49.1,0,0,0,17.4-9.2,34.4,34.4,0,0,1,3.4-2.6,7,7,0,0,1,.1,2.1c-.1,2.3,0,4.7,0,7v3a32.5,32.5,0,0,0,7.6,20.8,45.4,45.4,0,0,0,6.5,6.1l1,.9a18,18,0,0,1-3.1,1.7A121.2,121.2,0,0,1,251.4,368.2Z" transform="translate(-31.3 -26.2)"/><path d="M117.7,424.8a7,7,0,0,0-6.4,7.5c.4,4.2-.5,8.6-1.5,13.2-.5,2.8-1.1,5.7-1.5,8.7-.6,5.1-1.5,10.1-2.5,15.4-1.8,10.5-3.8,21.4-3.2,32.8a7,7,0,0,0,7,6.6h.3a7.1,7.1,0,0,0,6.7-7.4c-.5-9.7,1.2-19.3,3-29.5,1-5.3,2-10.8,2.6-16.3.3-2.4.8-4.9,1.3-7.5,1.1-5.4,2.3-11,1.7-17.2A6.9,6.9,0,0,0,117.7,424.8Z" transform="translate(-31.3 -26.2)"/><path d="M407.8,463.3c-.5-3.5-1.1-6.9-1.7-10.2a164.1,164.1,0,0,1-2.9-20.4,6.9,6.9,0,0,0-7.4-6.5,7,7,0,0,0-6.6,7.4,194.2,194.2,0,0,0,3.1,22c.6,3.2,1.2,6.6,1.7,9.8l1.2,7.5c1.7,9.8,3.2,19.2,2.5,28.6a7,7,0,0,0,6.5,7.5h.5a7.1,7.1,0,0,0,7-6.5c.8-11.1-1-21.7-2.7-32Z" transform="translate(-31.3 -26.2)"/><path d="M208.7,180V169.6c1.9.4,2.3,1.8,2.7,3.7a21.7,21.7,0,0,0,3,6.3l1.1,2c1.8,3.8,4.8,5.4,7.8,5.4a8.5,8.5,0,0,0,3.8-.9,7,7,0,0,0,3.5-9.2,6.9,6.9,0,0,0-3.7-3.6l-.6-1.1a11.4,11.4,0,0,1-1.3-2.3,22.3,22.3,0,0,0-1.3-3.9,16.7,16.7,0,0,0,5.4-7.6,16.5,16.5,0,0,0-1.5-13.8,16.1,16.1,0,0,0-11.7-7.3c-7.2-1.1-12.8-1.9-17,1.7a9.7,9.7,0,0,0-3,4.3,20.1,20.1,0,0,0-.7-3.9,7,7,0,0,0-13.4,4c.2.6.3,1.4-.3,3.3-1.4,4.1-2.6,8.2-3.7,12.3-.3,1.1-.7,2.2-1,3.4l-1.5-5.2c-.8-3.1-1.7-6.2-2.6-9.4-.2-.5-.3-1-.5-1.6a8.7,8.7,0,0,1-.6-2.3,7,7,0,0,0-13.1-5.1c-1.9,4.8-.5,8.9.4,11.7l.3,1.2,2.7,9.3c1.3,4.6,2.6,9.3,4,14a19.3,19.3,0,0,0,5.7,8.4,7.5,7.5,0,0,0,4.9,1.9,7.1,7.1,0,0,0,2.8-.6c6.3-2.8,8-8.6,9.1-12l.2-.9c.9-3,1.8-6,2.6-9s2.3-7.8,3.5-11.6V180a7,7,0,0,0,14,0Zm0-29.6,5.1.7a3.1,3.1,0,0,1,1.9.9,2.8,2.8,0,0,1,0,2.2c-.1.4-1,1-2.3,1.9l-.3.2a19.1,19.1,0,0,0-4.4-.8v-5.1Z" transform="translate(-31.3 -26.2)"/></svg>