<svg xmlns="http://www.w3.org/2000/svg" viewBox="0 0 461.8 492.8"><title>vr4</title><path d="M486.5,480.3a60,60,0,0,0-2.2-9.9c-.9-3.4-1.4-5.1-1.1-8.5a12,12,0,1,0-23.9-1.8,43.4,43.4,0,0,0,1.9,16.8,32.9,32.9,0,0,1,1.5,6.7c.6,4,.1,5.1.1,5.1s-.8.8-3.9,1.6a32.1,32.1,0,0,0-14,7.4,11.8,11.8,0,0,0-.9,16.9,11.9,11.9,0,0,0,16.9.9,8.5,8.5,0,0,1,3.8-1.9C476.3,510.7,489.6,502.6,486.5,480.3Z" transform="translate(-25.1 -27.2)"/><path d="M453.6,432.6a12,12,0,0,0,12,11.1h.9a12.1,12.1,0,0,0,11.1-12.9c-1-13.4-6.1-26-15.7-38.5-15.8-20.7-38.5-27.1-54.2-30.2-17.7-3.4-35.8-7.3-53.2-11.1l-17-3.7a35,35,0,0,0-11.1-.5l-2.4-1.9a46.5,46.5,0,0,1-3.8-3.6,13,13,0,0,1-3.3-8.7v-3.2c-.1-2.1-.1-4.2,0-6.1a29.8,29.8,0,0,0-1.6-10.8,37.6,37.6,0,0,1,4-4c8.5-7.5,18.3-16.7,26.7-27.7,10-13.3,16.3-29,18.7-46.7v-1c.2-1.6.5-3.4.7-5.2a21.3,21.3,0,0,0,13.8-8.7V219h4.7a18.7,18.7,0,0,0,13.1-5.3,20.8,20.8,0,0,0,6.1-14.6c.1-21.9.1-41.2,0-58.7-.1-11.5-8.6-19.8-20.3-19.8h-3.9a27,27,0,0,0-10.1-8c-1.5-14.1-7.3-27.8-17.5-41.5-16.3-22-39.8-35.9-69.9-41.3-36.9-6.7-70.3,0-99.1,20-21,14.6-34.3,35.8-39.5,62.9a23.3,23.3,0,0,0-10.1,7.9h-3.4c-11.5.1-18.7,6.5-20.3,17.8a88.6,88.6,0,0,0-.5,14.4v7.9a15.5,15.5,0,0,1-.1,2.3,13.5,13.5,0,0,0-.6,12.5c1.1,2.3,1,5.4.8,10.2a57.7,57.7,0,0,0-.2,7.3c.2,6.4.4,15.3,6.7,21.1,4.7,4.3,10.6,5.1,15.9,5.1h2.2a32.3,32.3,0,0,0,13.9,9,93.8,93.8,0,0,0,22.4,56.8A243.4,243.4,0,0,0,189,304.8l6,5.7.6.6a9.3,9.3,0,0,1,1.4,1.4,23.7,23.7,0,0,0-1.4,9.5v1.7a88.5,88.5,0,0,1-.5,11.7c-.4,3.4-2,6-5.4,8.5l-1.2.8a28.6,28.6,0,0,0-2.9,2.1c-6.4-.8-12.1.6-16.6,1.8l-3.4.8c-20.8,4.4-43.2,9.2-66.1,13.9-3,.6-6.3,1.1-10.6,1.6h-.2a14.7,14.7,0,0,0-8.5,2.8l-7.3,5.1c-9.3,6.5-19.9,13.8-27,25.8a95.5,95.5,0,0,0-12,35.1c-2,14.8-4.8,30.5-8.3,48.2-2.7,13.7,6.9,28.3,20.6,31.3a8.9,8.9,0,0,1,4.9,2.4,12.2,12.2,0,0,0,8.5,3.5,12.1,12.1,0,0,0,8.5-20.5,33,33,0,0,0-16.7-8.8,4.5,4.5,0,0,1-2.3-3.2c3.7-18.1,6.5-34.3,8.6-49.5a70,70,0,0,1,8.9-26.3c4.4-7.4,12-12.7,20-18.2l5.6-4c4.7-.5,8.5-1.1,12.1-1.8,23-4.7,45.5-9.5,66.4-14l4.1-1a35.8,35.8,0,0,1,7.4-1.3,32.6,32.6,0,0,0,12,8.8c18.5,8.4,36.5,12.9,55.1,13.9h7.4a140.2,140.2,0,0,0,61.3-14,36,36,0,0,0,11.9-8.7,14,14,0,0,1,2.5.2l17,3.7c17.6,3.8,35.8,7.7,53.8,11.2s31.3,10.2,39.7,21.2C449.5,415.6,453,424,453.6,432.6ZM196.2,69.5c23.4-16.3,50.7-21.7,81.1-16.2,24.2,4.3,42.2,14.8,55,32,6.5,8.8,10.6,17.3,12.3,25.9H167.9C172.5,93.1,181.8,79.4,196.2,69.5Zm-8.1,200a70.4,70.4,0,0,1-16.8-41.3h3.4a99.6,99.6,0,0,0,10.7-.3,12,12,0,0,0-2.6-23.9,64.8,64.8,0,0,1-7.8.2c-5.3-.1-11.3-.2-17.7,1.6a11.1,11.1,0,0,1-3.5-1,36.1,36.1,0,0,0,.5-9V140.8a26.9,26.9,0,0,0-.6-6.5l1-.3a18.5,18.5,0,0,0,8.5,1.2H348.6a35.1,35.1,0,0,0,8.1-.8,3.6,3.6,0,0,1,2.5,0,33.5,33.5,0,0,0-.5,8v55.8a35.5,35.5,0,0,0,.4,6.3,27.1,27.1,0,0,0-5.2.9,34.5,34.5,0,0,0-11.5-1.1h-16c-12.3-.1-25.1-.1-37.6,0a27.9,27.9,0,0,1-12-2.3l-2.2-4.7c-3.4-7.9-7.2-16.9-16.9-17.3s-14.6,9.1-18,16.8c-.5,1.3-1.3,3.1-1.9,4.3-6.1,2.7-12.8,3.6-21.6,3.2a12,12,0,1,0-1.2,24c14,.7,25.4-1.5,35.7-6.8a16,16,0,0,0,6.3-5.8,16.9,16.9,0,0,0,6.5,6.5,51.9,51.9,0,0,0,25.5,6.1c12.4-.1,25.1-.1,37.3,0h14.9a11.1,11.1,0,0,1-.2,1.7v1c-1.8,13.7-6.4,25.2-14,35.3s-15.9,17.5-23.5,24.2a49.4,49.4,0,0,0-9.7,11,36.2,36.2,0,0,0-11.5,7,30.9,30.9,0,0,1-11,5.7c-5,1.6-10.5,1.8-17.6,1.8h-.1c-9.5,0-17.4-2.7-24.2-8.2a36.7,36.7,0,0,0-10.5-6.1l-.6-1.1a41.8,41.8,0,0,0-5.9-6.8l-.6-.5-6.1-5.9C199.3,281.4,193.3,275.8,188.1,269.5Zm62.4,99.7a123.3,123.3,0,0,1-42-9.8A35.5,35.5,0,0,0,219,338.2c.3-2.7.4-5.3.5-7.9a61.5,61.5,0,0,0,34,9.7h.2c7,0,15.8-.1,24.8-2.9a59.5,59.5,0,0,0,14.4-6.7v2.2a36.9,36.9,0,0,0,8.7,23.9c.8,1,1.7,1.9,2.5,2.8A117.9,117.9,0,0,1,250.5,369.2Z" transform="translate(-25.1 -27.2)"/><path d="M116.1,425.8a12,12,0,0,0-10.9,13c.3,3.4-.5,7.3-1.4,11.7s-1.2,5.9-1.6,9.1c-.6,4.9-1.5,9.9-2.4,15.1-1.9,10.8-4,22-3.3,33.9A12,12,0,0,0,108.4,520h.7a12,12,0,0,0,11.3-12.6c-.4-9.2,1.2-18.5,3-28.4,1-5.4,2-10.9,2.7-16.6a70.3,70.3,0,0,1,1.2-7.1c1.1-5.5,2.4-11.7,1.8-18.6A12,12,0,0,0,116.1,425.8Z" transform="translate(-25.1 -27.2)"/><path d="M411.6,468.5c-.5-3.5-1.1-6.9-1.7-10.2a161.2,161.2,0,0,1-2.8-19.9,12,12,0,0,0-24,1.4,179.8,179.8,0,0,0,3.2,22.7c.5,3.3,1.1,6.5,1.6,9.6l1.2,7.6c1.6,9.6,3.2,18.6,2.5,27.4a12,12,0,0,0,11,12.9h1a12,12,0,0,0,11.9-11.1c.9-11.7-.9-22.6-2.7-33.2Z" transform="translate(-25.1 -27.2)"/><path d="M197.9,156.1h-8.4a1.8,1.8,0,0,0-1.8,1.4l-4.6,15.2-4.5-15.2a2.2,2.2,0,0,0-.7-.9,1.6,1.6,0,0,0-1.1-.5h-8.5a.9.9,0,0,0-.6.3c-.1.2-.2.3-.2.5v.4l9.3,25.6a1.6,1.6,0,0,0,1.7,1.2h9.3a1.8,1.8,0,0,0,1.8-1.4l9.2-25.4v-.4c0-.2-.1-.3-.2-.5A.9.9,0,0,0,197.9,156.1Z" transform="translate(-25.1 -27.2)"/><path d="M204.8,184.1h8.6a1.2,1.2,0,0,0,1.1-1.1v-7.8h3.3l3.6,7.9a1.7,1.7,0,0,0,1.6,1h9.1l.6-.3a.9.9,0,0,0,.3-.5,4.3,4.3,0,0,0-.1-.5l-4.9-9.2q4.2-2.4,4.2-7.8a8.8,8.8,0,0,0-3.2-7.1,13.7,13.7,0,0,0-8.7-2.6H204.8a1,1,0,0,0-.8.4.9.9,0,0,0-.3.7V183a.9.9,0,0,0,.3.7A1,1,0,0,0,204.8,184.1Zm9.7-20.5h5a1.7,1.7,0,0,1,1.4.6,2.8,2.8,0,0,1,.4,1.5,2,2,0,0,1-.5,1.5,1.5,1.5,0,0,1-1.3.6h-5Z" transform="translate(-25.1 -27.2)"/></svg>