<svg xmlns="http://www.w3.org/2000/svg" viewBox="0 0 453.8 484.8"><title>vr5</title><path d="M482.6,474.8a73.9,73.9,0,0,0-2.1-9.3,24.3,24.3,0,0,1-1.3-9.9,8,8,0,1,0-16-1.2,39.3,39.3,0,0,0,1.9,15.4,55.6,55.6,0,0,1,1.6,7.2c1,7.5-.2,9.5-6.8,11.2a27.1,27.1,0,0,0-12.3,6.5,8,8,0,0,0-.7,11.3,8.3,8.3,0,0,0,6,2.6,8.1,8.1,0,0,0,5.3-2,11.7,11.7,0,0,1,5.5-2.9C478.4,500.1,484.7,490.4,482.6,474.8Z" transform="translate(-29.1 -25.2)"/><path d="M457.6,426.3a8,8,0,0,0,8,7.4h.6a8,8,0,0,0,7.4-8.6c-1-12.6-5.8-24.5-14.8-36.3-15-19.7-36.8-25.8-51.8-28.7-17.8-3.5-35.9-7.4-53.4-11.2l-17-3.6a25.9,25.9,0,0,0-11.4-.2l-3.7-3.2a29.2,29.2,0,0,1-4.4-4,17.1,17.1,0,0,1-4.2-11.3v-3.2c-.1-2.2-.1-4.2,0-6.3a26.8,26.8,0,0,0-2.1-11.3,30.5,30.5,0,0,1,5.9-6.3c8.3-7.4,18-16.4,26.1-27.1,9.8-12.9,15.6-27.6,17.9-44.8l.2-1c.3-2.7.7-5.4.8-8.3h1.6a17.5,17.5,0,0,0,12.7-7.3,10,10,0,0,0,1.2-1.9h7a14.2,14.2,0,0,0,10.2-4.2,16.4,16.4,0,0,0,4.9-11.7c.1-22,.1-41.2,0-58.7-.1-9.4-6.8-15.8-16.3-15.8h-5.9a23.3,23.3,0,0,0-11.8-9.1c-1.1-14.3-6.7-28.1-17-42-15.7-21.2-38.4-34.6-67.4-39.8-35.9-6.5-68.2.1-96.1,19.4-20.4,14.2-33.2,34.8-38.1,61.3-.1.4-.1.8-.2,1.2a19.3,19.3,0,0,0-11.3,9h-5.7c-9.4.1-15,5.1-16.3,14.4a79.9,79.9,0,0,0-.5,13.7v8c0,1.7,0,3.2-.4,3.9a9.7,9.7,0,0,0-.7,9.1c1.6,3.4,1.4,7.5,1.2,12.2a53,53,0,0,0-.2,7c.2,7.4.7,13.9,5.4,18.2s8.1,4.1,13.3,4.1h4c3.1,4.6,9.4,8.5,15.9,10.1a90.6,90.6,0,0,0,21.6,57.3c5.9,7.1,12.6,13.4,19,19.5l6,5.7.6.6a18,18,0,0,1,2.8,3.1l.5.7c-2.2,3.5-2.1,7.4-2.1,10v1.7a94,94,0,0,1-.5,12.1c-.5,4.6-2.8,8.2-7,11.3l-1.3.9a29.7,29.7,0,0,0-4,3c-6.3-1.2-12.1.2-16.9,1.5l-3.4.8c-20.8,4.5-43.2,9.2-66.2,13.9-3.2.6-6.6,1.1-11,1.6h-.4a10.6,10.6,0,0,0-6.3,2c-2.4,1.8-4.8,3.4-7.4,5.2-9.5,6.6-19.2,13.3-25.8,24.5a89.2,89.2,0,0,0-11.5,33.7c-2.1,14.8-4.8,30.6-8.4,48.4-2.2,11.4,6.1,24.1,17.6,26.6a12.9,12.9,0,0,1,6.8,3.4,8,8,0,0,0,5.7,2.4,7.7,7.7,0,0,0,5.6-2.4,7.9,7.9,0,0,0,0-11.3,28.6,28.6,0,0,0-14.7-7.7c-2.7-.6-5.9-4.7-5.3-7.9,3.6-18,6.4-34.2,8.5-49.3a73.4,73.4,0,0,1,9.5-27.7c4.8-8.2,12.7-13.7,21.1-19.5l6.4-4.5H91c5-.6,8.8-1.2,12.5-1.9,23-4.7,45.5-9.5,66.3-14l4.1-.9c4.6-1.2,7.7-1.9,10.6-1.1,3.3,4.7,7.9,7.2,11.3,8.8,18,8.2,35.6,12.6,53.7,13.5h7.2a137.4,137.4,0,0,0,59.6-13.6,32.2,32.2,0,0,0,11.4-8.7h.3a11.7,11.7,0,0,1,5.3,0l16.9,3.7c17.6,3.8,35.8,7.7,53.7,11.2,20.2,3.9,33.1,10.9,42.1,22.7C453.1,407.8,456.9,416.9,457.6,426.3ZM382.9,134.6h.4c.1,17.4.1,36.5,0,58.4h-4.6V137.7a8.6,8.6,0,0,0-.1-1.6v-1.6h4.3Zm-189-74.4c24.3-16.9,52.6-22.5,84.2-16.9,24.9,4.5,44.2,15.8,57.4,33.6,8.1,10.9,12.6,21.5,13.7,32.3H162.8C167.2,88,177.6,71.5,193.9,60.2ZM129.1,193a44.2,44.2,0,0,1-.5-6.7,55.1,55.1,0,0,1,.1-5.7c.3-5.1.6-10.8-1.4-16.7a25.1,25.1,0,0,0,1.4-9.2v-8.3a69.5,69.5,0,0,1,.3-11.3,1.1,1.1,0,0,0,.1-.5h5.2v55.9a23.5,23.5,0,0,1,.1,2.6Zm56,73.1a74,74,0,0,1-17.9-47.7,62,62,0,0,1,7.5-.1A90.5,90.5,0,0,0,185,218a8,8,0,1,0-1.8-15.9,72.4,72.4,0,0,1-8.2.2c-5.2-.1-11.1-.2-17.1,1.6-1.9.4-6.8-1.5-8.7-3.1a30.1,30.1,0,0,0,1.1-10.8V134.8a19.7,19.7,0,0,0-1.1-7.5c-.3-.6-.2-.9-.1-1a3.6,3.6,0,0,1,2-1.5h.6c1.2-.4,3.2-1,3.7-.8a13.6,13.6,0,0,0,7.5,1.3H348.6a30.4,30.4,0,0,0,7.1-.7c3.4-.9,6.2.1,8,2.7a25.9,25.9,0,0,0-1,9.2v55.7a34.1,34.1,0,0,0,.7,7.6,2.5,2.5,0,0,1-.4,1.9c-.2.2-.5.6-.9.6a37.5,37.5,0,0,0-8.2,1.3,31.3,31.3,0,0,0-11.4-1.2H326.4c-12.3-.1-25-.1-37.6,0a31.3,31.3,0,0,1-14.9-3.3c-.8-1.3-2.1-4.3-2.9-6.1-3.3-7.5-6.3-14.6-13.5-14.9s-10.9,7.2-14.1,14.4a63.5,63.5,0,0,1-2.8,5.8c-6.9,3.3-14.6,4.6-24.6,4.1a8,8,0,1,0-.8,16c13.3.6,24-1.4,33.7-6.3,3.8-2,6-6.1,8.2-11,2.3,5.4,4.4,9.6,8.3,11.7a48.7,48.7,0,0,0,23.6,5.6c12.4-.1,25.1-.1,37.3,0h16.5a14,14,0,0,1,2.9,0c-.1,2-.4,4-.7,6.2v1c-2,14.4-6.8,26.6-14.9,37.2s-16.2,17.9-23.9,24.8a45.6,45.6,0,0,0-9.8,11.3c-5.1,1.4-8.9,4.6-11.5,6.8a34.6,34.6,0,0,1-12.4,6.4c-5.6,1.8-11.3,2-18.8,2h-.1c-10.5,0-19.2-3-26.7-9a30.9,30.9,0,0,0-10.7-5.9c-.5-1-1-1.8-1.3-2.3a36.3,36.3,0,0,0-5.3-6.1l-.6-.5c-2-2-4-4-6.1-5.9C196.4,278.2,190.4,272.5,185.1,266.1Zm65.2,101.1a127.8,127.8,0,0,1-47.8-12.1l-1.5-.7.5-.4A31.8,31.8,0,0,0,215,331.7a111.7,111.7,0,0,0,.6-14v-1.2l1.1.9c10.3,8.3,22.7,12.6,36.8,12.6h.2c6.8,0,15.2-.1,23.5-2.7a52.1,52.1,0,0,0,17.8-9.4l1.9-1.6v.2c-.1,2.4-.1,4.8,0,7.1v3a33.2,33.2,0,0,0,7.8,21.4,48,48,0,0,0,6.6,6.3l-1.9.9A120.3,120.3,0,0,1,250.3,367.2Z" transform="translate(-29.1 -25.2)"/><path d="M116.5,423.8a8,8,0,0,0-7.3,8.6c.3,4.1-.6,8.4-1.5,12.9a76.8,76.8,0,0,0-1.5,8.8c-.6,5-1.5,10-2.5,15.3-1.9,10.6-3.8,21.5-3.2,33a7.9,7.9,0,0,0,7.9,7.6h.5a7.9,7.9,0,0,0,7.5-8.4c-.5-9.7,1.3-19.2,3.1-29.3.9-5.3,1.9-10.8,2.6-16.3.3-2.4.8-4.9,1.3-7.5,1.1-5.2,2.3-11.1,1.7-17.4A8,8,0,0,0,116.5,423.8Z" transform="translate(-29.1 -25.2)"/><path d="M407.7,463.1,405.9,453a186.4,186.4,0,0,1-2.8-20.3,8,8,0,0,0-8.5-7.5,8,8,0,0,0-7.5,8.4,191.5,191.5,0,0,0,3.1,22.2c.6,3.2,1.2,6.5,1.7,9.7s.8,5,1.2,7.5c1.6,9.8,3.2,19.1,2.5,28.4a8,8,0,0,0,7.3,8.6h.7a8,8,0,0,0,7.9-7.4c.9-11.2-.9-21.9-2.6-32.2C408.4,468,408,465.5,407.7,463.1Z" transform="translate(-29.1 -25.2)"/><path d="M197.9,150.1h-8.4a1.8,1.8,0,0,0-1.8,1.4l-4.6,15.2-4.5-15.2a2.2,2.2,0,0,0-.7-.9,1.6,1.6,0,0,0-1.1-.5h-8.5a.9.9,0,0,0-.6.3c-.1.2-.2.3-.2.5v.4l9.3,25.6a1.6,1.6,0,0,0,1.7,1.2h9.3a1.8,1.8,0,0,0,1.8-1.4l9.2-25.4v-.4c0-.2-.1-.3-.2-.5A.9.9,0,0,0,197.9,150.1Z" transform="translate(-29.1 -25.2)"/><path d="M204.8,178.1h8.6a1.2,1.2,0,0,0,1.1-1.1v-7.8h3.3l3.6,7.9a1.7,1.7,0,0,0,1.6,1h9.1l.6-.3a.9.9,0,0,0,.3-.5,4.3,4.3,0,0,0-.1-.5l-4.9-9.2q4.2-2.4,4.2-7.8a8.8,8.8,0,0,0-3.2-7.1,13.7,13.7,0,0,0-8.7-2.6H204.8a1,1,0,0,0-.8.4.9.9,0,0,0-.3.7V177a.9.9,0,0,0,.3.7A1,1,0,0,0,204.8,178.1Zm9.7-20.5h5a1.7,1.7,0,0,1,1.4.6,2.8,2.8,0,0,1,.4,1.5,2,2,0,0,1-.5,1.5,1.5,1.5,0,0,1-1.3.6h-5Z" transform="translate(-29.1 -25.2)"/></svg>