<svg width="60" height="44" viewBox="0 0 60 44" fill="none" xmlns="http://www.w3.org/2000/svg">
<path d="M48.6641 27.3385V6.00521C48.6641 3.07187 46.2641 0.671875 43.3307 0.671875H5.9974C3.06406 0.671875 0.664062 3.07187 0.664062 6.00521V27.3385C0.664062 30.2719 3.06406 32.6719 5.9974 32.6719H43.3307C46.2641 32.6719 48.6641 30.2719 48.6641 27.3385ZM43.3307 27.3385H5.9974V6.00521H43.3307V27.3385ZM24.6641 8.67187C20.2374 8.67187 16.6641 12.2452 16.6641 16.6719C16.6641 21.0985 20.2374 24.6719 24.6641 24.6719C29.0907 24.6719 32.6641 21.0985 32.6641 16.6719C32.6641 12.2452 29.0907 8.67187 24.6641 8.67187ZM59.3307 8.67187V38.0052C59.3307 40.9385 56.9307 43.3385 53.9974 43.3385H8.66406C8.66406 40.6719 8.66406 40.9385 8.66406 38.0052H53.9974V8.67187C56.9307 8.67187 56.6641 8.67187 59.3307 8.67187Z" fill="#65CDAA"/>
</svg>
