<svg width="31" height="29" viewBox="0 0 31 29" fill="none" xmlns="http://www.w3.org/2000/svg">
<circle cx="15.5621" cy="15.3258" r="11.6054" transform="rotate(14.9458 15.5621 15.3258)" stroke="#65CDAA"/>
<path d="M20.4321 12.1499C20.2747 10.5288 18.8747 9.98664 17.1077 9.83351L17.1055 7.58473L15.7367 7.58616L15.7388 9.77568C15.379 9.77607 15.0112 9.78352 14.6457 9.79116L14.6438 7.58715L13.2758 7.5884L13.2774 9.83654C12.981 9.84288 12.69 9.84866 12.4062 9.84911L12.406 9.84214L10.5181 9.84328L10.5199 11.3052C10.5199 11.3052 11.5307 11.285 11.5139 11.3036C12.0683 11.3033 12.2491 11.625 12.3018 11.9027L12.3044 14.4645C12.3426 14.4647 12.3926 14.4662 12.4491 14.4739C12.4035 14.474 12.3547 14.4738 12.3045 14.4743L12.3075 18.0631C12.2834 18.2376 12.1811 18.516 11.7937 18.517C11.8112 18.5325 10.7987 18.5177 10.7987 18.5177L10.5282 20.1527L12.3096 20.1509C12.6411 20.151 12.9672 20.1563 13.2874 20.158L13.2902 22.4324L14.6575 22.4313L14.6554 20.181C15.0308 20.1884 15.3941 20.191 15.7488 20.1904L15.7504 22.4304L17.1192 22.4289L17.1175 20.1586C19.4186 20.0244 21.0287 19.4431 21.2267 17.2819C21.3865 15.5416 20.5672 14.7659 19.2606 14.4535C20.0538 14.0486 20.5493 13.3361 20.4321 12.1499ZM18.5217 17.0149C18.5241 18.7145 15.6136 18.524 14.6859 18.5257L14.6834 15.5123C15.6114 15.5116 18.5201 15.2421 18.5217 17.0149ZM17.881 12.7639C17.8821 14.3103 15.4548 14.1321 14.6821 14.1329L14.6796 11.3999C15.4523 11.3991 17.8793 11.1511 17.881 12.7639Z" fill="#20B1AB"/>
</svg>
