<svg width="25" height="25" viewBox="0 0 25 25" fill="none" xmlns="http://www.w3.org/2000/svg">
<circle cx="12.7265" cy="12.3242" r="11.6054" stroke="#65CDAA"/>
<path fill-rule="evenodd" clip-rule="evenodd" d="M12.7658 4.16445C12.7259 4.25488 11.5197 6.17199 10.0854 8.42473C8.65099 10.6774 7.46549 12.5501 7.45082 12.5862C7.43178 12.6332 8.21102 13.0921 10.1832 14.1951L12.9423 15.7381L15.7006 14.1942C17.6822 13.085 18.4514 12.6317 18.4322 12.5841C18.3325 12.3382 12.9687 4 12.9102 4C12.8707 4 12.8058 4.07398 12.7658 4.16445ZM7.45737 13.696C7.56368 13.868 12.9195 21.0007 12.9419 21C12.9789 20.9989 18.4547 13.6748 18.4335 13.6548C18.4135 13.6359 13.2953 16.4892 13.0817 16.6382L12.9509 16.7296L10.3008 15.2487C8.84329 14.4342 7.59696 13.7349 7.5312 13.6948C7.42218 13.6283 7.41563 13.6284 7.45737 13.696Z" fill="#65CDAA"/>
</svg>
